<?xml version="1.0" encoding="UTF-8"?>
<svg id="Layer_1" xmlns="http://www.w3.org/2000/svg" version="1.1" viewBox="0 0 16 16">
  <!-- Generator: Adobe Illustrator 29.6.1, SVG Export Plug-In . SVG Version: 2.1.1 Build 9)  -->
  <defs>
    <style>
      .st0 {
        fill: #757575;
      }

      .st1 {
        fill: #f6821f;
      }

      .st2, .st3 {
        fill: #ec1e35;
      }

      .st4 {
        fill: #fff;
      }

      .st5 {
        fill: #2196f3;
      }

      .st6 {
        fill: #39b54a;
      }

      .st6, .st3 {
        display: none;
      }

      .st7 {
        fill: #1f5bd6;
      }

      .st8 {
        fill: #f2cd0e;
      }

      .st9 {
        fill: #165fae;
      }

      .st10 {
        fill: #1eb04d;
      }
    </style>
  </defs>
  <polygon class="st6" points="-22.88 -236.52 -26.48 -215.02 -47.02 -207.4 -63.96 -221.29 -60.36 -242.8 -39.82 -250.42 -22.88 -236.52"/>
  <polygon class="st3" points="-18.53 -210.86 -15.23 -232.76 5.5 -240.83 22.94 -227.01 19.64 -205.11 -1.1 -197.03 -18.53 -210.86"/>
  <g>
    <polygon class="st0" points="6.23 8.91 6.05 9.69 5.45 9.15 5.62 8.35 6.23 8.91"/>
    <polygon class="st0" points="7.08 8.68 6.91 9.48 6.14 9.72 6.3 8.92 7.08 8.68"/>
    <path class="st0" d="M8.38,8.73c-.12-.03-.23-.05-.35-.08l-.11.51.78-.25h0s.02-.1.02-.1c-.11-.02-.23-.05-.34-.08ZM5.72,8.09s-.03,0-.04-.01l-.03.16.61.55.11-.54c-.23-.06-.44-.11-.65-.16ZM6.45,8.27l-.12.53.78-.25.03-.12c-.24-.06-.47-.11-.69-.17ZM7.24,8.46v.06s.1-.03.1-.03c-.03,0-.06-.02-.1-.02ZM7.53,8.53l-.33.1-.18.8.78-.25.13-.57c-.13-.03-.27-.06-.4-.09ZM5.39,8.01l.16.15.02-.1c-.06-.01-.12-.03-.18-.05ZM5.18,7.96s-.03,0-.04-.01c-.08-.02-.17-.04-.25-.06l-.13.63.61.55.17-.8-.35-.32ZM4.64,7.83v.03c-.08.14-.15.26-.22.37l.24.21.12-.58s-.09-.02-.14-.03ZM5.18,7.96s-.03,0-.04-.01c-.08-.02-.17-.04-.25-.06l-.13.63.61.55.17-.8-.35-.32ZM5.39,8.01l.16.15.02-.1c-.06-.01-.12-.03-.18-.05ZM5.72,8.09s-.03,0-.04-.01l-.03.16.61.55.11-.54c-.23-.06-.44-.11-.65-.16ZM6.45,8.27l-.12.53.78-.25.03-.12c-.24-.06-.47-.11-.69-.17ZM7.24,8.46v.06s.1-.03.1-.03c-.03,0-.06-.02-.1-.02ZM7.53,8.53l-.33.1-.18.8.78-.25.13-.57c-.13-.03-.27-.06-.4-.09ZM13.01,10.08c-.01-.06-.03-.11-.05-.17-.08-.21-.23-.45-.38-.68,0,0-.02,0-.03,0-.14.04-.29.03-.43.02-.04,0-.08,0-.12,0-.57-.02-1.15-.07-1.78-.16-.34-.05-.69-.11-1.06-.19-.02,0-.03,0-.05,0-.03,0-.06-.01-.09-.02v.03s-.1.22-.1.22l-.2.06-.62.19-1.68.53-.42.13-.34-.3-1.3-1.17-.13-.12s-.07.09-.11.15c-.02.03-.04.06-.07.09-.08.1-.18.22-.27.3.12.57,1.1,2.05.04,4.54.59-.05,2.16-.02,4.26,1.38.14-.37.25-.82.66-.98.39-.15,1.08.01,1.5.04.6.04,1.05-.09,1.11-.77.02-.25-.08-.62.12-.81.15-.14.35-.13.34-.39,0-.11-.13-.24-.04-.34.1-.11.28-.08.32-.3.04-.18-.27-.57.05-.73.3-.14.94,0,.82-.55ZM8.38,8.73c-.12-.03-.23-.05-.35-.08l-.11.51.78-.25h0s.02-.1.02-.1c-.11-.02-.23-.05-.34-.08ZM7.73,5.89l-.8.25.64.55h0l.8-.25-.64-.55ZM7.91,6.71c.14,0,.29,0,.45.01l.04-.16-.48.15ZM8.5,6.52l-.04.2c.23,0,.47,0,.72.01l.1-.46-.78.25ZM12.31,8.79c-.03-.05-.05-.1-.07-.15-.23-.52-.01-.57.11-1.03.05-.18.07-.37.08-.56-.08-.02-.18-.03-.27-.03-.04,0-1.27-.01-2.7-.04-.11,0-.22,0-.33,0-.24,0-.48,0-.72-.01-.03,0-.07,0-.1,0-.24,0-.49-.01-.72-.02-.03,0-.07,0-.1,0-.08,0-.16,0-.24,0-.11,0-.22,0-.33-.01h0c-.1,0-.2,0-.29,0h0c-.07,0-.13,0-.2,0-.17,0-.33-.01-.48-.02-.04,0-.07,0-.1,0-.22-.01-.4-.02-.54-.04h0s-.02,0-.03,0c-.03,0-.08,0-.14-.01h0s0,0,0,0c-.03,0-.07,0-.1,0-.17-.01-.38-.03-.58-.06-.04-.04-.08-.08-.12-.12-.11-.11-.22-.21-.31-.32-.05-.06-.09-.11-.13-.16-.02-.03-.04-.08-.06-.13-.05.22-.09.45-.11.68,0,0,0,0,0,0h0c.1.06.2.13.27.18,0,0,.02.01.02.02,0,0,.01.01.02.02,0,0,.02.01.02.02,0,0,.02.02.03.02,0,0,0,0,.01.01.01.01.03.03.04.04.03.03.06.05.09.08.06.05.12.11.17.15-.07-.02-.14,0-.21.04-.03.02-.05.03-.07.05-.13.11-.24.28-.32.38-.03.03-.06.07-.1.09h0s0,.03,0,.05c.02.32.06.64.11.96.02-.02.04-.04.06-.07.1-.12.19-.27.27-.42.05-.08.09-.17.14-.25.07-.13.13-.26.18-.37.03-.06.06-.1.09-.14.09.02.19.05.28.07h0c.07.02.14.03.21.05.21.05.42.1.59.15.04,0,.07.02.1.02.02,0,.03,0,.05.01.21.05.43.11.65.16.03,0,.05.01.08.02.23.06.46.11.69.17.03,0,.07.02.1.02.16.04.32.08.47.11.07.02.13.03.2.05h0s.01,0,.02,0c.03,0,.07.02.1.02.12.03.24.06.35.08.11.03.23.05.34.08.1.02.21.05.32.07.03,0,.05.01.08.02.94.19,1.88.32,2.84.35.13,0,.3.04.44,0h0c-.05-.08-.1-.16-.14-.24ZM6.85,6.17l-.8.25.28.24h0c.3.01.67.02,1.13.04l-.61-.53ZM6.01,6.53l-.02.12c.05,0,.1,0,.16,0l-.14-.12ZM5.3,5.9l-.15.69c.05,0,.09,0,.12.01.13.01.32.02.6.04l.04-.19-.61-.55ZM4.6,5.26l-.17.8.57.52s.03,0,.05,0l.16-.76-.61-.55ZM4.41,6.18l-.04.19s.03.02.04.04c.04.04.09.08.13.13.1.01.2.02.3.03l-.43-.38ZM10.88,4.04c-.18-.11-.37-.18-.56-.24l-.21,1.21-1.15.43.36.31.33.29-.1.45h0s-.05.25-.05.25c.05,0,.09,0,.14,0,0,0,.01,0,.02,0,.65.01,1.39.02,2.22.03.22,0,.26,0,.27,0,.05,0,.12,0,.19.02.02,0,.04,0,.06.01-.04-1.07-.6-2.21-1.54-2.77ZM9.71,3.68s-.01.03-.02.04c-.01.02-.01.04-.04.04-.02,0-.03,0-.05,0,0,0-.01,0-.02,0-.03,0-.07-.02-.09.01-.03.04-.04.11-.07.16-.01.02-.03.04-.04.06-.02.03-.04.07-.06.1-.02.02-.03.05-.05.07-.02.03-.04.06-.06.09-.01.03-.03.06-.04.09-.02.07-.03.13-.04.2,0,0,0,0,0,.01,0,0,0,.04,0,.04,0,0,0,0,.02,0,0,0,0,.03,0,.03,0,.01,0,.02-.01.02-.01,0-.03,0-.04,0-.02,0-.03,0-.05-.01-.02,0,0-.01,0-.03,0-.03,0-.06,0-.09,0,0,0,0,0-.01,0,0,0-.02,0-.03,0-.06.02-.12.02-.18,0-.02,0-.04.01-.06,0,0,0-.01,0-.02,0,0,0,0,0,0,0,0-.02,0-.03,0,0,.02-.02.03-.03.05-.02.05-.03.11-.04.16,0,.02,0,.03,0,.05,0,.02,0,.03-.01.05,0,.01-.02.05,0,.05,0,0,.01,0,.01,0,0,0,.02.04.01.05,0,0-.01,0-.02,0-.01,0-.04,0-.05,0,0,0-.03,0-.03-.01,0,0,0-.01,0-.02,0-.04-.02-.06-.01-.1.01-.06.02-.12.02-.18,0-.05,0-.1.01-.14-.02,0-.05-.01-.08-.02-.05-.02-.1-.03-.15-.05,0,0-.02-.01-.03-.02-.01,0-.04.05-.05.06-.02.02-.04.05-.07.06-.03.02-.06.03-.08.06-.01.02-.02.04-.03.06,0,0,0,.03,0,.04,0,0,.01,0,.02.01,0,.01,0,.03,0,.04,0,0-.03,0-.03,0,0,0-.03-.01-.04-.02-.03-.02-.02-.04-.01-.06,0-.02,0-.05.01-.07,0-.01,0-.03.01-.04,0-.01.02-.02.03-.03.03-.03.06-.05.06-.09,0,0,0,0,0-.01-.02.03-.05.06-.08.08-.02.01-.03.02-.05.04-.05.04-.07.09-.08.15,0,0,.02,0,.02,0,0,0,0,.04,0,.04,0,0-.02,0-.02,0-.02,0-.05,0-.08-.02-.02,0-.02-.02-.02-.04,0-.05.03-.1.04-.15,0-.01,0-.03.02-.04.01-.02.03-.02.05-.03.04-.04.04-.11.05-.16,0-.02.01-.04.02-.06,0,0,0,0,0,0-.01,0-.03.02-.05.03,0,0-.05.02-.05.02,0,0,0,0,0,0,0,0-.03,0-.04,0-.03,0-.06,0-.09,0-.03,0-.05-.01-.08-.01,0,0-.01,0-.01,0,0,0-.01,0-.02,0,0-.01.01-.02.02-.03.04-.05.1-.04.16-.05.1-.02.14-.06.2-.13.02-.02.07-.07.1-.09.05-.03.13-.03.18-.02.11.02.22.08.33.08.03,0,.07-.02.1-.02.02,0,.05,0,.07-.01.01,0,.03-.03.05-.05-.09,0-.19,0-.28-.01-.38-.02-.77,0-1.15.03l-.13.78,1,.83,1.23-.46.18-1.07c-.11-.02-.23-.04-.34-.05ZM8.62,5.62l-.8.25.64.55.8-.25-.64-.55ZM7.91,5.01l-.8.25.64.55.8-.25-.64-.55ZM7.21,4.4l-.8.25.64.55.8-.25-.64-.55ZM7.03,5.28l-.8.25.64.55.8-.25-.64-.55ZM6.73,3.82s0,0,0,0c0,0,.01.02.01.03,0,.02,0,.03,0,.04,0,0,0,.01,0,.03,0,.02-.02.03-.02.04,0,0,0,.03,0,.04,0,.01,0,.02-.01.03,0,.03,0,.05-.02.08-.04.04-.11.02-.1-.05,0-.02.02-.04.02-.06,0,0,0-.02,0-.02,0,0,0,0,0-.01,0-.01-.02-.03-.02-.05,0-.02,0-.03,0-.05,0,0,0-.01,0-.02-.05.01-.1.02-.14.03,0,0,0,0,0,.01,0,.01,0,.02-.01.03,0,0,0,.02,0,.03,0,.04-.03.05-.05.07-.02.03-.02.05-.06.07h-.02s-.02,0-.02,0l-.02-.02s-.01-.05,0-.07c0-.01.02-.03.03-.04,0-.01.01-.02.02-.04,0,0,0-.01-.01-.02-.1.03-.2.06-.3.09l.43.37.97-.34.06-.35c-.25.03-.49.08-.74.13ZM6.33,4.67l-.8.25.64.55.8-.25-.64-.55ZM6.15,5.56l-.8.25.64.55.8-.25-.64-.55ZM5.45,4.95l-.8.25.64.55.8-.25-.64-.55ZM5.37,4.24c-.19.08-.37.16-.56.25l.31.28.51-.16.11-.51c-.13.04-.25.09-.37.14ZM4.64,7.83v.03c-.08.14-.15.26-.22.37l.24.21.12-.58s-.09-.02-.14-.03ZM5.18,7.96s-.03,0-.04-.01c-.08-.02-.17-.04-.25-.06l-.13.63.61.55.17-.8-.35-.32ZM5.39,8.01l.16.15.02-.1c-.06-.01-.12-.03-.18-.05ZM5.72,8.09s-.03,0-.04-.01l-.03.16.61.55.11-.54c-.23-.06-.44-.11-.65-.16ZM6.45,8.27l-.12.53.78-.25.03-.12c-.24-.06-.47-.11-.69-.17ZM7.24,8.46v.06s.1-.03.1-.03c-.03,0-.06-.02-.1-.02ZM7.53,8.53l-.33.1-.18.8.78-.25.13-.57c-.13-.03-.27-.06-.4-.09ZM8.38,8.73c-.12-.03-.23-.05-.35-.08l-.11.51.78-.25h0s.02-.1.02-.1c-.11-.02-.23-.05-.34-.08ZM4.64,7.83v.03c-.08.14-.15.26-.22.37l.24.21.12-.58s-.09-.02-.14-.03Z"/>
    <path class="st5" d="M8,.66C3.95.66.66,3.95.66,8s3.29,7.34,7.34,7.34,7.34-3.29,7.34-7.34S12.05.66,8,.66ZM8,15.14c-3.94,0-7.14-3.2-7.14-7.14S4.06.86,8,.86s7.14,3.2,7.14,7.14-3.2,7.14-7.14,7.14Z"/>
    <path class="st4" d="M4.72,9.54"/>
    <polygon class="st4" points="6.23 8.91 6.05 9.69 5.45 9.15 5.62 8.35 6.23 8.91"/>
    <polygon class="st4" points="7.08 8.68 6.91 9.48 6.14 9.72 6.3 8.92 7.08 8.68"/>
    <path class="st4" d="M4.78,7.86l-.12.58-.24-.21c.07-.11.14-.23.2-.37v-.03c.06.01.11.02.16.03Z"/>
    <path class="st4" d="M5.53,8.27l-.17.8-.61-.55.13-.63c.09.02.17.04.25.06.01,0,.03,0,.04.01l.35.32Z"/>
    <path class="st4" d="M5.58,8.06l-.02.1-.16-.15c.07.02.13.03.18.05Z"/>
    <path class="st4" d="M6.37,8.25l-.11.54-.61-.55.03-.16s.03,0,.04.01c.21.05.43.11.65.16Z"/>
    <path class="st4" d="M7.14,8.44l-.03.12-.78.25.12-.53c.22.05.45.11.69.17Z"/>
    <path class="st4" d="M7.33,8.49l-.11.03v-.06s.08.02.11.02Z"/>
    <path class="st4" d="M7.93,8.63l-.13.57-.78.25.18-.8.33-.1c.13.03.27.06.4.09Z"/>
    <path class="st4" d="M8.72,8.81l-.02.1h0s-.78.25-.78.25l.11-.51c.12.03.23.05.35.08.11.03.23.05.34.08Z"/>
    <polygon class="st4" points="6.09 5.5 5.29 5.75 4.65 5.2 5.45 4.95 6.09 5.5"/>
    <polygon class="st4" points="6.79 6.11 5.99 6.36 5.35 5.81 6.15 5.56 6.79 6.11"/>
    <polygon class="st4" points="6.97 5.23 6.17 5.48 5.53 4.92 6.33 4.67 6.97 5.23"/>
    <polygon class="st4" points="7.67 5.84 6.87 6.09 6.23 5.53 7.03 5.28 7.67 5.84"/>
    <polygon class="st4" points="7.85 4.95 7.05 5.2 6.41 4.65 7.21 4.4 7.85 4.95"/>
    <polygon class="st4" points="8.55 5.56 7.75 5.81 7.11 5.26 7.91 5.01 8.55 5.56"/>
    <polygon class="st4" points="9.26 6.17 8.46 6.42 7.82 5.87 8.62 5.62 9.26 6.17"/>
    <polygon class="st4" points="8.38 6.45 7.58 6.7 7.58 6.7 6.94 6.14 7.73 5.89 8.38 6.45"/>
    <path class="st4" d="M8.39,6.55l-.04.16c-.16,0-.3,0-.45-.01l.48-.15Z"/>
    <path class="st4" d="M9.28,6.27l-.1.46c-.26,0-.5,0-.72-.01l.04-.2.78-.25Z"/>
    <path class="st4" d="M4.84,6.56c-.1,0-.2-.02-.3-.03-.04-.04-.09-.09-.13-.13-.01-.01-.03-.02-.04-.04l.04-.19.43.38Z"/>
    <path class="st4" d="M5.22,5.82l-.16.76s-.03,0-.05,0l-.57-.52.17-.8.61.55Z"/>
    <path class="st4" d="M5.92,6.45l-.04.19c-.28-.01-.47-.03-.6-.04-.03,0-.07,0-.12-.01l.15-.69.61.55Z"/>
    <path class="st4" d="M6.14,6.65c-.06,0-.11,0-.16,0l.02-.12.14.12Z"/>
    <path class="st4" d="M7.46,6.69c-.46-.01-.83-.02-1.13-.04h0l-.28-.24.8-.25.61.53Z"/>
    <path class="st4" d="M3.78,5.95l-.19-.18.07-.11c.05.08.09.19.12.29Z"/>
    <path class="st4" d="M9.46,6.97l-.09.4-.28,1.28c-.11-.02-.21-.04-.32-.07-.11-.02-.23-.05-.34-.08-.12-.03-.24-.05-.35-.08-.03,0-.07-.02-.1-.02,0,0-.01,0-.02,0h0c-.07-.02-.13-.03-.2-.05-.16-.04-.32-.08-.47-.11-.03,0-.07-.02-.1-.02-.23-.06-.46-.11-.69-.17-.03,0-.05-.01-.08-.02-.22-.05-.43-.11-.65-.16-.02,0-.03,0-.05-.01-.03,0-.06-.02-.1-.02-.17-.04-.38-.09-.59-.15-.07-.02-.14-.03-.21-.05h0c-.1-.02-.19-.05-.28-.07-.03.04-.06.09-.09.14-.06.12-.12.24-.18.37-.04.08-.09.17-.14.25l-.4-.36-.04-.11v-.04s0,0,0,0h0s.07-.06.1-.1c.08-.09.19-.27.32-.38.02-.02.05-.04.07-.05.07-.04.14-.06.21-.04-.05-.04-.11-.1-.17-.15-.03-.03-.06-.06-.09-.08-.02-.01-.03-.03-.04-.04,0,0,0,0-.01-.01,0,0-.02-.02-.03-.02,0,0-.02-.01-.02-.02,0,0-.02-.01-.02-.02,0,0-.02-.01-.02-.02-.07-.05-.16-.11-.27-.18l.3-.39c.09.1.21.21.31.32.04.04.08.08.12.12.19.02.41.04.58.06.04,0,.07,0,.1,0h0s0,0,0,0c.06,0,.11,0,.14.01,0,0,.02,0,.03,0h0c.14.01.32.02.54.04.03,0,.07,0,.1,0,.15,0,.31.01.48.02.07,0,.13,0,.2,0h0c.09,0,.19,0,.29,0h0c.11,0,.22,0,.33.01.08,0,.16,0,.24,0,.03,0,.07,0,.1,0,.24,0,.48.01.72.02.03,0,.07,0,.1,0,.24,0,.48,0,.72.01.11,0,.22,0,.33,0Z"/>
    <polygon class="st4" points="5.61 2.74 5.48 3.4 4.84 3.62 4.79 3.58 5.4 3.39 5.53 2.68 5.61 2.74"/>
    <polygon class="st4" points="5.75 4.1 5.75 4.1 5.63 4.61 5.13 4.77 4.82 4.49 4.82 4.49 4.73 4.41 4.85 3.9 5.36 3.74 5.75 4.1"/>
    <path class="st4" d="M6.59,3.19v.07s-.11,0-.11,0c0,0,0,0,0,0,0,0,0-.04,0-.04.03,0,.05-.02.07-.02,0,0,.04,0,.04,0Z"/>
    <path class="st4" d="M6.61,3.03l-.02.11s-.02,0-.02,0c-.03,0-.05.02-.08.03,0,0,0,0,0,0,0,0,0-.02,0-.03,0,0,.02-.02.03-.03.02-.02.03-.05.04-.08h.05Z"/>
    <path class="st4" d="M6.68,3.2l-.02.07h-.05s0-.08,0-.08c0,0,.01,0,.02,0,.02,0,.03,0,.05,0Z"/>
    <path class="st4" d="M6.72,3.05l-.03.11s-.05,0-.07-.01l.02-.11h.08Z"/>
    <path class="st4" d="M6.85,3.31v.04c-.06-.03-.11-.05-.17-.06l.02-.07s.02,0,.03,0c.01,0,.02.02.03.03.03.02.05.04.08.06Z"/>
    <path class="st4" d="M6.87,3.24v.03s-.05-.03-.06-.03c-.02-.02-.04-.04-.06-.06-.01,0-.02-.01-.03-.02l.04-.11h.06s0,.06,0,.09c0,.04.03.07.05.1Z"/>
    <path class="st4" d="M6.89,2.93s-.01.02-.02.03c-.06.06-.2.07-.27.02-.02-.02-.04-.04-.04-.07.04.07.12.08.19.08.04,0,.08-.02.12-.04l.02-.02Z"/>
    <path class="st4" d="M6.89,2.75c0-.06-.04-.11-.1-.13-.06-.02-.14,0-.18.05-.03.04-.03.07-.03.12,0,.06.02.11.08.13.03.01.13.01.16,0,.08-.03.08-.1.07-.17ZM6.87,2.8c0,.08-.04.11-.11.11-.03,0-.08,0-.11-.01-.04-.02-.05-.06-.05-.1,0-.06.01-.12.08-.13.04,0,.08,0,.11,0,0,0,.02,0,.02,0,.06.02.06.08.05.13Z"/>
    <path class="st4" d="M6.81,2.37l-.97.34-.19,1,.35.3.43.37.97-.34.06-.35.12-.65-.78-.66ZM7.15,3.31s.02.04.02.04c0,0-.01.02-.01.03,0,0,.02.02.03.02,0,0,0,0,0,0,0,0,.02.02.03.03,0,0,.04.03.04.04,0,0,0,0,0,.01,0,0,0,0,0,0,0,.02.03.04.01.06,0,0,0,0,0,0,0,0,0,.01,0,.02,0,0-.02,0-.02,0,0,0,0,.01-.02,0-.02,0,0-.03,0-.04,0-.02-.02-.03-.03-.04,0,.01.01.03,0,.04-.02.01-.03-.02-.04-.03,0-.01-.02-.04-.02-.05,0,0,0-.02,0-.02,0,0-.02-.01-.02-.02,0,0-.01.01-.02,0,0,0-.02-.02-.03-.03-.01-.01-.02-.02-.03-.04.02-.03.05-.06.09-.07.01,0,.03,0,.04,0ZM6.74,3.86s0,.03,0,.04c0,0,0,.01,0,.03,0,.02-.02.03-.02.04,0,0,0,.03,0,.04,0,.01,0,.02-.01.03,0,.03,0,.05-.02.08-.04.04-.11.02-.1-.05,0-.02.02-.04.02-.06,0,0,0-.02,0-.02,0,0,0,0,0-.01,0-.01-.02-.03-.02-.05,0-.02,0-.03,0-.05,0,0,0-.01,0-.02,0,0,0,0,0,0-.01-.05-.02-.11-.02-.17,0-.05.01-.11,0-.15,0,0,0,0,0,0-.02.03-.04.06-.06.09-.02.02-.04.03-.05.05,0,0,0,.02-.02.03,0,.03.01.06,0,.09,0,0,0,0,0,.01,0,0,0,.02,0,.02,0,.02,0,.03,0,.04,0,0,0,.01,0,.02,0,0,0,0,0,.01,0,.01,0,.02-.01.03,0,0,0,.02,0,.03,0,.04-.03.05-.05.07-.02.03-.02.05-.06.07h-.02s-.02,0-.02,0l-.02-.02s-.01-.05,0-.07c0-.01.02-.03.03-.04,0-.01.01-.02.02-.04,0,0,0-.01-.01-.02,0,0,0,0,0,0-.01-.02,0-.03,0-.05,0,0,0-.02,0-.03,0-.02,0-.03,0-.04,0,0,0-.01,0-.02-.02-.05-.01-.11,0-.15,0-.01,0-.02,0-.03,0-.02,0-.04.02-.05.02-.01.06,0,.08,0,0,0,.04.03.05.03,0-.04-.03-.05-.07-.06-.01,0-.03,0-.04,0,0-.02,0-.03.01-.04.01-.01.03-.02.05-.01.03,0,.06.02.08.03,0,0-.01-.03-.01-.03-.02-.03-.05-.03-.09-.03.02-.05.06-.09.09-.13,0-.06,0-.11,0-.17,0,0,0,0,0,0,0,0-.01,0-.02,0-.04.02-.08.04-.12.06-.02,0-.05.01-.08.02,0,0-.02.01-.02.01,0,0,0,0-.01-.01,0,0-.03,0-.03,0-.02,0-.03.02-.05.03-.01,0-.03,0-.04,0,0,0,0,0,0,.01,0,0,0,.02,0,.02,0,0-.01,0-.02,0,0,0,.01.02,0,.02-.01,0-.02-.01-.03-.01,0,0-.02,0-.02,0,0,0,0-.04,0-.04,0-.02.02-.03.03-.04,0,0,0-.01.01-.02,0-.01.03-.01.04-.02.01,0,.03-.02.05-.03,0,0,.01,0,.02,0,0,0,.02,0,.02,0,0,0,0-.02,0-.02l.05-.03h.03s.04.09.08.09c0,0,0,0,0,0-.03-.03-.06-.08-.06-.13,0,0,.01-.02.01-.02.01,0,.03-.02.05-.02,0,.05.03.09.07.11l-.02-.04s-.03-.07-.02-.11c0,0,.02-.02.02-.03,0,0,.02,0,.03-.01v.02s0,.02,0,.02c0-.01.01-.03.02-.04.03-.03.08-.05.12-.05,0,0,0-.02,0-.02,0,0,0-.03,0-.03,0,0-.02,0-.02-.01,0,0,0-.04,0-.05,0-.02,0-.05.02-.07,0,0,.02,0,.03,0,0,0,.01-.02.02-.03.08-.12.26-.11.32.02,0,0,0,.01,0,.02,0,0,.01,0,.02,0,0,0,.01.01.01.02,0,.01,0,.07,0,.08,0,.01-.01.02-.03.02,0,.02-.01.04-.02.07.06,0,.09.03.08.09,0,0,0,.02,0,.03.02.02.03.04.05.06,0,0,.01.02.01.03,0,0,0,0,0,0-.01,0-.03,0-.04.01-.03.01-.06.04-.08.07.05-.02.09-.05.14-.06l.02.04s-.01.03-.02.04c-.02.02-.05.04-.07.06.03,0,.07-.01.09-.03,0,0,0-.01.02-.02.01.02.03.05.05.07-.04,0-.07.03-.1.05,0,0-.01.02-.02.02l-.07-.07v.07s-.05.06-.09.05c0,0-.02,0-.02,0,0,.05,0,.09-.02.13,0,0-.03-.02-.03-.02-.03-.02-.06-.04-.09-.03-.01,0-.02.01-.03.02h.05c.05.02.12.06.08.12-.04-.03-.1-.08-.15-.04.01,0,.02,0,.03,0,.02,0,.04.02.06.03.01,0,.04.02.04.04,0,.03-.02.06-.04.08.01.03.03.06.01.09,0,0,0,0,0,0,0,0,0,0,0,0,0,0,.01.02.01.03Z"/>
    <path class="st4" d="M8.77,2.29l-.04.23-.87.3-.15-.13.58-.22h0s.06.07.1.03c.02-.02.02-.05,0-.07l.39-.14Z"/>
    <path class="st4" d="M9.1,2.7l-.02-.02-.1.04-.69.26h0l-.44.16-.03.15-.06.36-.13.78,1,.83,1.23-.46.18-1.07.04-.22-.99-.82ZM9.69,3.72s-.01.04-.04.04c-.02,0-.03,0-.05,0,0,0-.01,0-.02,0-.03,0-.07-.02-.09.01-.03.04-.04.11-.07.16-.01.02-.03.04-.04.06-.02.03-.04.07-.06.1-.02.02-.03.05-.05.07-.02.03-.04.06-.06.09-.01.03-.03.06-.04.09-.02.07-.03.13-.04.2,0,0,0,0,0,.01,0,0,0,.04,0,.04,0,0,0,0,.02,0,0,0,0,.03,0,.03,0,.01,0,.02-.01.02-.01,0-.03,0-.04,0-.02,0-.03,0-.05-.01-.02,0,0-.01,0-.03,0-.03,0-.06,0-.09,0,0,0,0,0-.01,0,0,0-.02,0-.03,0-.06.02-.12.02-.18,0-.02,0-.04.01-.06,0,0,0-.01,0-.02,0,0,0,0,0,0,0,0-.02,0-.03,0,0,.02-.02.03-.03.05-.02.05-.03.11-.04.16,0,.02,0,.03,0,.05,0,.02,0,.03-.01.05,0,.01-.02.05,0,.05,0,0,.01,0,.01,0,0,0,.02.04.01.05,0,0-.01,0-.02,0-.01,0-.04,0-.05,0,0,0-.03,0-.03-.01,0,0,0-.01,0-.02,0-.04-.02-.06-.01-.1.01-.06.02-.12.02-.18,0-.05,0-.1.01-.14-.02,0-.05-.01-.08-.02-.05-.02-.1-.03-.15-.05,0,0-.02-.01-.03-.02-.01,0-.04.05-.05.06-.02.02-.04.05-.07.06-.03.02-.06.03-.08.06-.01.02-.02.04-.03.06,0,0,0,.03,0,.04,0,0,.01,0,.02.01,0,.01,0,.03,0,.04,0,0-.03,0-.03,0,0,0-.03-.01-.04-.02-.03-.02-.02-.04-.01-.06,0-.02,0-.05.01-.07,0-.01,0-.03.01-.04,0-.01.02-.02.03-.03.03-.03.06-.05.06-.09,0,0,0,0,0-.01-.02.03-.05.06-.08.08-.02.01-.03.02-.05.04-.05.04-.07.09-.08.15,0,0,.02,0,.02,0,0,0,0,.04,0,.04,0,0-.02,0-.02,0-.02,0-.05,0-.08-.02-.02,0-.02-.02-.02-.04,0-.05.03-.1.04-.15,0-.01,0-.03.02-.04.01-.02.03-.02.05-.03.04-.04.04-.11.05-.16,0-.02.01-.04.02-.06,0,0,0,0,0,0-.01,0-.03.02-.05.03,0,0-.05.02-.05.02,0,0,0,0,0,0,0,0-.03,0-.04,0-.03,0-.06,0-.09,0-.03,0-.05-.01-.08-.01,0,0-.01,0-.01,0,0,0-.01,0-.02,0,0-.01.01-.02.02-.03.04-.05.1-.04.16-.05.1-.02.14-.06.2-.13.02-.02.07-.07.1-.09.05-.03.13-.03.18-.02.11.02.22.08.33.08.03,0,.07-.02.1-.02.02,0,.05,0,.07-.01.01,0,.03-.03.05-.05.02-.02.03-.05.04-.06,0,0,.02-.04.02-.05,0,0,0-.02,0-.03,0-.02,0-.02.01-.03.03-.01.06-.03.09-.05.02,0,.02,0,.04,0,.09,0,.17.03.22.1.02.02.02.03.02.05,0,.02,0,.01.02.02,0,0,0,.01.01.02,0,0,.04.03.04.04,0,.01,0,.03,0,.04,0,0,0,0,0,0,0,.01-.01.03-.02.04Z"/>
    <polygon class="st10" points="5.75 4.1 5.75 4.1 5.63 4.61 5.13 4.77 4.82 4.49 4.82 4.49 4.73 4.41 4.85 3.9 5.36 3.74 5.75 4.1"/>
    <path class="st5" d="M4.74,3.07l-.02.06s-.02-.01-.03-.03c-.03-.05-.04-.1-.04-.15,0-.01,0-.02,0-.03,0,0,.01-.01.02-.02,0,0,0-.01.02,0,0,0,.01.02.02.02,0,0,.01,0,.01.01l.03.14Z"/>
    <path class="st5" d="M4.68,2.88s0-.02,0-.03c0-.02,0-.05.01-.07,0-.02.02-.04.03-.06,0,0,.02-.02.03-.03.02,0,.04,0,.05,0l.05.05-.04.11s-.06.04-.09.06c0,0,0,0-.01,0,0,0-.03-.04-.03-.04Z"/>
    <path class="st5" d="M4.81,2.69h-.03s0,0,0,0c.02-.02.07-.04.1-.05,0,0,.01,0,.02,0l-.09.06Z"/>
    <path class="st5" d="M4.92,3.24s-.03.02-.04.01c-.01,0-.05-.02-.06-.03l-.08-.09v-.02s.01-.05.01-.05l.12.03.08.09s0,0,0,.01c0,0-.02.03-.02.04Z"/>
    <path class="st5" d="M4.96,3.27h-.05s0-.01,0-.01c.02,0,.03,0,.05,0,0,0,.01,0,0,0Z"/>
    <path class="st5" d="M4.9,2.96l-.08-.09h0s.05-.12.05-.12l.13-.03h.01s.05.06.08.09l-.05.12-.13.03h0Z"/>
    <path class="st5" d="M5.14,3.05l-.05.12s-.01,0-.02,0c-.04,0-.08.01-.12.02l-.08-.09h0s.04-.13.04-.13l.13-.03.1.1Z"/>
    <path class="st5" d="M5.13,3.22h.02s-.02,0-.03.02v-.02Z"/>
    <path class="st5" d="M4.95,2.63h-.01s.06,0,.09,0c.04,0,.09.03.13.06,0,0,0,0,0,0l-.14-.05s-.05,0-.07-.01Z"/>
    <path class="st5" d="M5.17,2.7l.06.08v.05s-.03,0-.03,0c0,0,0,0-.01,0-.03,0-.06-.01-.08-.02-.02-.02-.03-.04-.05-.05,0,0-.03-.03-.03-.04,0,0,0-.02,0-.03,0,0,0-.01,0-.02,0,0,0-.02,0-.02,0,0,0,0,.01,0,.04.01.08.03.12.04h0Z"/>
    <path class="st5" d="M5.27,3.02v.07s-.05.08-.07.09c-.02.02-.04.02-.07.03l-.04-.04.05-.12s0,0,0,0c.01-.01.03-.02.04-.03,0,0,.02-.02.03-.02,0,0,0,0,0,0,0,0,.03.03.03.03Z"/>
    <path class="st5" d="M5.22,2.83s0-.03.01-.05c0,0,0,0,0-.01,0,0,0,0,0,0,.04.06.06.15.04.23,0,0,0,0,0,.01,0,0,0,0-.01,0,0,0-.03-.03-.03-.04,0-.05-.02-.1-.02-.15Z"/>
    <path class="st5" d="M5.53,2.68h0s-.43-.37-.43-.37l-.64.22-.13.66.46.4.05.04.64-.22.13-.66-.08-.07ZM4.63,3.01c-.05-.25.17-.45.42-.4.25.05.35.37.19.56-.19.22-.55.13-.6-.16Z"/>
    <path class="st10" d="M4.84,6.56c-.1,0-.2-.02-.3-.03-.04-.04-.09-.09-.13-.13-.01-.01-.03-.02-.04-.04l.04-.19.43.38Z"/>
    <path class="st10" d="M5.01,6.81l-.15.72-.24-.22-.37-.33.05-.24.02-.1s.08.08.12.12c.19.02.41.04.58.06Z"/>
    <polygon class="st9" points="6.23 8.91 6.05 9.69 5.45 9.15 5.62 8.35 6.23 8.91"/>
    <path class="st2" d="M5.53,8.27l-.17.8-.61-.55.13-.63c.09.02.17.04.25.06.01,0,.03,0,.04.01l.35.32Z"/>
    <path class="st2" d="M7.93,8.63l-.13.57-.78.25.18-.8.33-.1c.13.03.27.06.4.09Z"/>
    <path class="st2" d="M7.98,8.39h0s-.01,0-.02,0h.02Z"/>
    <path class="st2" d="M6.14,6.65c-.06,0-.11,0-.16,0l.02-.12.14.12Z"/>
    <path class="st2" d="M6.62,7.08h0s-.17.8-.17.8l-.61-.55.1-.45c.15,0,.31.01.48.02l.21.19Z"/>
    <path class="st1" d="M6.37,8.25l-.11.54-.61-.55.03-.16s.03,0,.04.01c.21.05.43.11.65.16Z"/>
    <path class="st1" d="M6.42,7.99v.04c-.22-.05-.44-.11-.65-.16-.02,0-.03,0-.05-.01l.09-.42.61.55Z"/>
    <path class="st9" d="M5.83,6.87l-.08.38-.46-.41c.14.01.32.02.54.04Z"/>
    <path class="st9" d="M5.92,6.45l-.04.19c-.28-.01-.47-.03-.6-.04-.03,0-.07,0-.12-.01l.15-.69.61.55Z"/>
    <path class="st9" d="M5.58,8.06l-.02.1-.16-.15c.07.02.13.03.18.05Z"/>
    <path class="st9" d="M5.72,7.36l-.1.47c-.17-.04-.38-.09-.59-.15l-.09-.08.17-.79h0s0,0,0,0l.61.54Z"/>
    <path class="st8" d="M5.22,5.82l-.16.76s-.03,0-.05,0l-.57-.52.17-.8.61.55Z"/>
    <path class="st1" d="M4.82,7.63c-.1-.02-.19-.05-.28-.07-.03.04-.06.09-.09.14-.06.12-.12.24-.18.37l-.22-.19h0s.09-.42.09-.42l.04-.18c.07-.04.14-.06.21-.04-.05-.04-.11-.1-.17-.15h0s.17.15.17.15l.02.02s0,0,0,0l.19.17.22.19Z"/>
    <path class="st1" d="M4.78,7.86l-.12.58-.24-.21c.07-.11.14-.23.2-.37v-.03c.06.01.11.02.16.03Z"/>
    <path class="st8" d="M7.47,6.92l-.16.71-.78.25.18-.8.52-.17c.08,0,.16,0,.24,0Z"/>
    <path class="st10" d="M7.14,8.44l-.03.12-.78.25.12-.53c.22.05.45.11.69.17Z"/>
    <path class="st10" d="M7.29,7.76l-.1.46c-.23-.06-.46-.11-.69-.17v-.04s.79-.25.79-.25Z"/>
    <polygon class="st1" points="7.08 8.68 6.91 9.48 6.14 9.72 6.3 8.92 7.08 8.68"/>
    <path class="st9" d="M8.3,6.94l-.09.41-.78.25.15-.68c.24,0,.48.01.72.02Z"/>
    <path class="st9" d="M8.39,6.55l-.04.16c-.16,0-.3,0-.45-.01l.48-.15Z"/>
    <path class="st1" d="M7.33,8.49l-.11.03v-.06s.08.02.11.02Z"/>
    <path class="st1" d="M8.18,7.47l-.18.8-.25.08c-.16-.04-.32-.08-.47-.11l.12-.52.78-.25Z"/>
    <path class="st8" d="M9.13,6.96l-.02.11-.78.25.08-.37c.24,0,.48,0,.72.01Z"/>
    <path class="st8" d="M9.28,6.27l-.1.46c-.26,0-.5,0-.72-.01l.04-.2.78-.25Z"/>
    <polygon class="st2" points="8.3 7.44 8.12 8.24 8.9 7.99 9.08 7.19 8.3 7.44"/>
    <path class="st1" d="M8.72,8.81l-.02.1h0s-.78.25-.78.25l.11-.51c.12.03.23.05.35.08.11.03.23.05.34.08Z"/>
    <path class="st1" d="M8.88,8.11l-.11.48c-.11-.02-.23-.05-.34-.08-.12-.03-.24-.05-.35-.08l.02-.07.78-.25Z"/>
    <polygon class="st1" points="6.79 6.11 5.99 6.36 5.35 5.81 6.15 5.56 6.79 6.11"/>
    <polygon class="st2" points="6.97 5.23 6.17 5.48 5.53 4.92 6.33 4.67 6.97 5.23"/>
    <path class="st2" d="M6.9,6.91l-.21.06-.09-.07c.09,0,.19,0,.29,0Z"/>
    <path class="st2" d="M7.46,6.69c-.46-.01-.83-.02-1.13-.04h0l-.28-.24.8-.25.61.53Z"/>
    <polygon class="st1" points="7.67 5.84 6.87 6.09 6.23 5.53 7.03 5.28 7.67 5.84"/>
    <polygon class="st9" points="7.85 4.95 7.05 5.2 6.41 4.65 7.21 4.4 7.85 4.95"/>
    <polygon class="st9" points="8.38 6.45 7.58 6.7 7.58 6.7 6.94 6.14 7.73 5.89 8.38 6.45"/>
    <polygon class="st10" points="8.55 5.56 7.75 5.81 7.11 5.26 7.91 5.01 8.55 5.56"/>
    <polygon class="st1" points="9.26 6.17 8.46 6.42 7.82 5.87 8.62 5.62 9.26 6.17"/>
    <path class="st7" d="M5.05,9.84s0-.02,0-.03c0,.01,0,.02,0,.03Z"/>
    <path class="st4" d="M12.62,7.26c-.04.51-.1,1.01-.05,1.52,0,.1.04.2-.08.24-.01,0-.02,0-.03,0-.14.03-.3,0-.44,0-.96-.03-1.9-.16-2.84-.35-.03,0-.05-.01-.08-.02-.11-.02-.21-.04-.32-.07-.11-.02-.23-.05-.34-.08-.12-.03-.24-.05-.35-.08-.03,0-.07-.02-.1-.02,0,0-.01,0-.02,0h0c-.07-.02-.13-.03-.2-.05-.16-.04-.32-.08-.47-.11-.03,0-.07-.02-.1-.02-.23-.06-.46-.11-.69-.17-.03,0-.05-.01-.08-.02-.22-.05-.43-.11-.65-.16-.02,0-.03,0-.05-.01-.03,0-.06-.02-.1-.02-.17-.04-.38-.09-.59-.15-.07-.02-.14-.03-.21-.05h0c-.1-.02-.19-.05-.28-.07-.03.04-.06.09-.09.14-.06.12-.12.24-.18.37-.04.08-.09.17-.14.25-.08.15-.17.3-.27.42-.02.03-.04.05-.06.07-.14.12-.25-.02-.39-.17-.39-.45-.03-.58.26-.83,0,0,0,0,.01,0h0s.07-.06.1-.1c.08-.09.19-.27.32-.38.02-.02.05-.04.07-.05.07-.04.14-.06.21-.04-.05-.04-.11-.1-.17-.15-.03-.03-.06-.06-.09-.08-.02-.01-.03-.03-.04-.04,0,0,0,0-.01-.01,0,0-.02-.02-.03-.02,0,0-.02-.01-.02-.02,0,0-.02-.01-.02-.02,0,0-.02-.01-.02-.02-.07-.05-.16-.11-.27-.18h0s0,0,0,0c-.26-.18-.58-.42-.57-.61,0-.13.27-.6.43-.53.03.01.07.05.09.1.05.08.09.19.12.29,0,.02.02.05.03.07.02.05.04.1.06.13.03.05.08.11.13.16.09.1.21.21.31.32.04.04.08.08.12.12.19.02.41.04.58.06.04,0,.07,0,.1,0h0s0,0,0,0c.06,0,.11,0,.14.01,0,0,.02,0,.03,0h0c.14.01.32.02.54.04.03,0,.07,0,.1,0,.15,0,.31.01.48.02.07,0,.13,0,.2,0h0c.09,0,.19,0,.29,0h0c.11,0,.22,0,.33.01.08,0,.16,0,.24,0,.03,0,.07,0,.1,0,.24,0,.48.01.72.02.03,0,.07,0,.1,0,.24,0,.48,0,.72.01.11,0,.22,0,.33,0,1.43.03,2.66.04,2.7.04.09,0,.18.01.27.03.12.03.21.1.2.22Z"/>
    <path class="st5" d="M12.62,7.26c-.04.51-.1,1.01-.05,1.52,0,.1.04.2-.08.24-.01,0-.02,0-.03,0-.14.03-.3,0-.44,0-.96-.03-1.9-.16-2.84-.35-.03,0-.05-.01-.08-.02-.11-.02-.21-.04-.32-.07-.11-.02-.23-.05-.34-.08-.12-.03-.24-.05-.35-.08-.03,0-.07-.02-.1-.02,0,0-.01,0-.02,0h0c-.07-.02-.13-.03-.2-.05-.16-.04-.32-.08-.47-.11-.03,0-.07-.02-.1-.02-.23-.06-.46-.11-.69-.17-.03,0-.05-.01-.08-.02-.22-.05-.43-.11-.65-.16-.02,0-.03,0-.05-.01-.03,0-.06-.02-.1-.02-.17-.04-.38-.09-.59-.15-.07-.02-.14-.03-.21-.05h0c-.1-.02-.19-.05-.28-.07-.15-.04-.29-.07-.4-.1h0l-.04-.13s.05-.04.07-.05c.07-.04.14-.06.21-.04-.05-.04-.11-.1-.17-.15-.03-.03-.06-.06-.09-.08-.02-.01-.03-.03-.04-.04,0,0,0,0-.01-.01,0,0-.02-.02-.03-.02,0,0-.02-.01-.02-.02,0,0-.02-.01-.02-.02,0,0-.02-.01-.02-.02l-.07-.24s.19.07.39.09c.04,0,.09.01.14.02.19.02.41.04.58.06.04,0,.07,0,.1,0,0,0,0,0,0,0,.06,0,.11,0,.14.01,0,0,.02,0,.03,0h0c.14.01.32.02.54.04.03,0,.07,0,.1,0,.15,0,.31.01.48.02.07,0,.13,0,.2,0h0c.09,0,.19,0,.29,0h0c.11,0,.22,0,.33.01.08,0,.16,0,.24,0,.03,0,.07,0,.1,0,.24,0,.48.01.72.02.03,0,.07,0,.1,0,.24,0,.48,0,.72.01.11,0,.22,0,.33,0,1.43.03,2.66.04,2.7.04.09,0,.18.01.27.03.12.03.21.1.2.22Z"/>
    <path class="st5" d="M4.61,7.31s-.04.02-.06.02c-.02,0-.05,0-.07-.02-.02-.01-.04-.03-.07-.05,0,0,0,0,0,0,0,0-.01-.01-.02-.02h0c-.05-.04-.11-.1-.17-.15-.03-.03-.06-.06-.09-.08-.02-.01-.03-.03-.04-.04,0,0,0,0-.01-.01,0,0-.02-.02-.03-.02,0,0-.02-.01-.02-.02,0,0-.02-.01-.02-.02,0,0-.02-.01-.02-.02-.07-.05-.16-.11-.27-.18,0,0,0,0,0,0-.26-.18-.58-.42-.57-.61,0-.13.27-.6.43-.53.03.01.07.05.09.1.05.08.09.19.12.29,0,.02.02.05.03.07.02.05.04.1.06.13.03.05.08.11.13.16.09.1.21.21.31.32.04.04.08.08.12.12.1.1.18.2.22.29.04.09.02.21-.04.26Z"/>
    <path class="st5" d="M4.6,7.44s-.04.08-.07.12c-.03.04-.06.09-.09.14-.06.12-.12.24-.18.37-.04.08-.09.17-.14.25-.08.15-.17.3-.27.42-.02.03-.04.05-.06.07-.14.12-.25-.02-.39-.17-.39-.45-.03-.58.26-.83,0,0,0,0,.01,0h0s.07-.06.1-.1c.08-.09.19-.27.32-.38.02-.02.05-.04.07-.05.07-.04.14-.06.21-.04h0s0,0,0,0c.02,0,.04.01.06.02.05.02.08.05.11.07.05.04.06.07.05.11Z"/>
    <polygon class="st10" points="6.09 5.5 5.29 5.75 4.65 5.2 5.45 4.95 6.09 5.5"/>
    <path class="st10" d="M5.93,2.01s-.05.04-.08.05c-.03.01-.06,0-.09,0-.03-.01-.04-.04-.06-.07-.01-.04-.01-.07,0-.09.01-.03.04-.05.07-.06.03-.01.06-.01.09,0l-.03-.08s-.06,0-.09.02c-.06.02-.09.05-.12.1-.02.05-.02.1,0,.15.02.05.05.09.09.11.04.02.09.02.14,0,.04-.01.07-.03.09-.05l-.02-.07Z"/>
    <path class="st10" d="M6.11,1.84l-.13.05.02.05.13-.05-.02-.05Z"/>
    <path class="st10" d="M6.3,1.74l.22.17.08-.03-.12-.35-.07.03.07.19s.01.04.02.05h0s-.02-.02-.03-.02l-.21-.17-.08.03.12.35.07-.03-.07-.19s-.02-.04-.02-.06h0s.01.01.03.02Z"/>
    <path class="st2" d="M9.52,1.99l-.04.06.09.06-.18.26.07.05.18-.26.09.06.04-.06-.26-.17Z"/>
    <path class="st2" d="M9.74,2.36l-.03.05.12.08.03-.05-.12-.08Z"/>
    <path class="st2" d="M10.14,2.41l-.34.24.08.05.07-.06.11.08-.03.09.08.05.11-.4-.09-.06ZM10.09,2.66l-.08-.06.11-.09s.02-.02.02-.02h0s-.01.02-.01.03l-.04.13Z"/>
    <path class="st9" d="M9.1,2.7l-.02-.02-.1.04-.69.26h0l-.44.16-.03.15-.06.36-.13.78,1,.83,1.23-.46.18-1.07.04-.22-.99-.82ZM9.69,3.72s-.01.04-.04.04c-.02,0-.03,0-.05,0,0,0-.01,0-.02,0-.03,0-.07-.02-.09.01-.03.04-.04.11-.07.16-.01.02-.03.04-.04.06-.02.03-.04.07-.06.1-.02.02-.03.05-.05.07-.02.03-.04.06-.06.09-.01.03-.03.06-.04.09-.02.07-.03.13-.04.2,0,0,0,0,0,.01,0,0,0,.04,0,.04,0,0,0,0,.02,0,0,0,0,.03,0,.03,0,.01,0,.02-.01.02-.01,0-.03,0-.04,0-.02,0-.03,0-.05-.01-.02,0,0-.01,0-.03,0-.03,0-.06,0-.09,0,0,0,0,0-.01,0,0,0-.02,0-.03,0-.06.02-.12.02-.18,0-.02,0-.04.01-.06,0,0,0-.01,0-.02,0,0,0,0,0,0,0,0-.02,0-.03,0,0,.02-.02.03-.03.05-.02.05-.03.11-.04.16,0,.02,0,.03,0,.05,0,.02,0,.03-.01.05,0,.01-.02.05,0,.05,0,0,.01,0,.01,0,0,0,.02.04.01.05,0,0-.01,0-.02,0-.01,0-.04,0-.05,0,0,0-.03,0-.03-.01,0,0,0-.01,0-.02,0-.04-.02-.06-.01-.1.01-.06.02-.12.02-.18,0-.05,0-.1.01-.14-.02,0-.05-.01-.08-.02-.05-.02-.1-.03-.15-.05,0,0-.02-.01-.03-.02-.01,0-.04.05-.05.06-.02.02-.04.05-.07.06-.03.02-.06.03-.08.06-.01.02-.02.04-.03.06,0,0,0,.03,0,.04,0,0,.01,0,.02.01,0,.01,0,.03,0,.04,0,0-.03,0-.03,0,0,0-.03-.01-.04-.02-.03-.02-.02-.04-.01-.06,0-.02,0-.05.01-.07,0-.01,0-.03.01-.04,0-.01.02-.02.03-.03.03-.03.06-.05.06-.09,0,0,0,0,0-.01-.02.03-.05.06-.08.08-.02.01-.03.02-.05.04-.05.04-.07.09-.08.15,0,0,.02,0,.02,0,0,0,0,.04,0,.04,0,0-.02,0-.02,0-.02,0-.05,0-.08-.02-.02,0-.02-.02-.02-.04,0-.05.03-.1.04-.15,0-.01,0-.03.02-.04.01-.02.03-.02.05-.03.04-.04.04-.11.05-.16,0-.02.01-.04.02-.06,0,0,0,0,0,0-.01,0-.03.02-.05.03,0,0-.05.02-.05.02,0,0,0,0,0,0,0,0-.03,0-.04,0-.03,0-.06,0-.09,0-.03,0-.05-.01-.08-.01,0,0-.01,0-.01,0,0,0-.01,0-.02,0,0-.01.01-.02.02-.03.04-.05.1-.04.16-.05.1-.02.14-.06.2-.13.02-.02.07-.07.1-.09.05-.03.13-.03.18-.02.11.02.22.08.33.08.03,0,.07-.02.1-.02.02,0,.05,0,.07-.01.01,0,.03-.03.05-.05.02-.02.03-.05.04-.06,0,0,.02-.04.02-.05,0,0,0-.02,0-.03,0-.02,0-.02.01-.03.03-.01.06-.03.09-.05.02,0,.02,0,.04,0,.09,0,.17.03.22.1.02.02.02.03.02.05,0,.02,0,.01.02.02,0,0,0,.01.01.02,0,0,.04.03.04.04,0,.01,0,.03,0,.04,0,0,0,0,0,0,0,.01-.01.03-.02.04Z"/>
    <path class="st8" d="M8.2,1.02l-.87.3-.17.9.55.47h0l.15.13.87-.3.04-.23.13-.67-.7-.6ZM8.43,1.57s.02-.01.03-.02h.16s-.07.16-.07.16l-.74.41h0s-.03-.05-.03-.05h0s.71-.45.71-.45l-.73.41h0s-.03-.04-.03-.04h0c.23-.15.46-.29.69-.44ZM8.11,2.04s-.02-.02-.01-.03l.05-.03.07.13-.05.03s-.04-.07-.07-.11ZM8.14,2.17h0s-.02.02-.03.02c0,0-.01,0-.01,0,0,0,0,0,0,0l-.08-.13h0s.05-.03.05-.03l.08.13ZM7.65,1.32l.15.07c.07.12.14.24.21.37,0,0,0,.02.01.02,0,0,0,0,0,0l-.06.04-.24-.38.22.39-.06.04h0s-.24-.38-.24-.38v-.17ZM7.59,2.23s-.04.02-.06.03c-.03.07-.13.03-.11-.04,0-.03.04-.04.06-.04l.2-.13-.06-.1s.06,0,.08.02l.1.17s0,.06-.02.08l-.06-.09s-.1.06-.15.08ZM8.38,2.5s-.09.01-.1-.03h0s0-.01,0-.02c0,0-.01-.02-.02-.03l-.11-.17-.09.06s0-.06.02-.08c.06-.03.11-.07.17-.1.03-.01.06,0,.08.02l-.1.06.12.21s.02.01.02.02c.02.02.02.05,0,.07Z"/>
    <path class="st1" d="M6.59,3.19v.07s-.11,0-.11,0c0,0,0,0,0,0,0,0,0-.04,0-.04.03,0,.05-.02.07-.02,0,0,.04,0,.04,0Z"/>
    <path class="st1" d="M6.61,3.03l-.02.11s-.02,0-.02,0c-.03,0-.05.02-.08.03,0,0,0,0,0,0,0,0,0-.02,0-.03,0,0,.02-.02.03-.03.02-.02.03-.05.04-.08h.05Z"/>
    <path class="st1" d="M6.68,3.2l-.02.07h-.05s0-.08,0-.08c0,0,.01,0,.02,0,.02,0,.03,0,.05,0Z"/>
    <path class="st1" d="M6.72,3.05l-.03.11s-.05,0-.07-.01l.02-.11h.08Z"/>
    <path class="st1" d="M6.85,3.31v.04c-.06-.03-.11-.05-.17-.06l.02-.07s.02,0,.03,0c.01,0,.02.02.03.03.03.02.05.04.08.06Z"/>
    <path class="st1" d="M6.87,3.24v.03s-.05-.03-.06-.03c-.02-.02-.04-.04-.06-.06-.01,0-.02-.01-.03-.02l.04-.11h.06s0,.06,0,.09c0,.04.03.07.05.1Z"/>
    <path class="st1" d="M6.89,2.93s-.01.02-.02.03c-.06.06-.2.07-.27.02-.02-.02-.04-.04-.04-.07.04.07.12.08.19.08.04,0,.08-.02.12-.04l.02-.02Z"/>
    <path class="st1" d="M6.89,2.75c0-.06-.04-.11-.1-.13-.06-.02-.14,0-.18.05-.03.04-.03.07-.03.12,0,.06.02.11.08.13.03.01.13.01.16,0,.08-.03.08-.1.07-.17ZM6.87,2.8c0,.08-.04.11-.11.11-.03,0-.08,0-.11-.01-.04-.02-.05-.06-.05-.1,0-.06.01-.12.08-.13.04,0,.08,0,.11,0,0,0,.02,0,.02,0,.06.02.06.08.05.13Z"/>
    <path class="st1" d="M6.81,2.37l-.97.34-.19,1,.35.3.43.37.97-.34.06-.35.12-.65-.78-.66ZM7.15,3.31s.02.04.02.04c0,0-.01.02-.01.03,0,0,.02.02.03.02,0,0,0,0,0,0,0,0,.02.02.03.03,0,0,.04.03.04.04,0,0,0,0,0,.01,0,0,0,0,0,0,0,.02.03.04.01.06,0,0,0,0,0,0,0,0,0,.01,0,.02,0,0-.02,0-.02,0,0,0,0,.01-.02,0-.02,0,0-.03,0-.04,0-.02-.02-.03-.03-.04,0,.01.01.03,0,.04-.02.01-.03-.02-.04-.03,0-.01-.02-.04-.02-.05,0,0,0-.02,0-.02,0,0-.02-.01-.02-.02,0,0-.01.01-.02,0,0,0-.02-.02-.03-.03-.01-.01-.02-.02-.03-.04.02-.03.05-.06.09-.07.01,0,.03,0,.04,0ZM6.74,3.86s0,.03,0,.04c0,0,0,.01,0,.03,0,.02-.02.03-.02.04,0,0,0,.03,0,.04,0,.01,0,.02-.01.03,0,.03,0,.05-.02.08-.04.04-.11.02-.1-.05,0-.02.02-.04.02-.06,0,0,0-.02,0-.02,0,0,0,0,0-.01,0-.01-.02-.03-.02-.05,0-.02,0-.03,0-.05,0,0,0-.01,0-.02,0,0,0,0,0,0-.01-.05-.02-.11-.02-.17,0-.05.01-.11,0-.15,0,0,0,0,0,0-.02.03-.04.06-.06.09-.02.02-.04.03-.05.05,0,0,0,.02-.02.03,0,.03.01.06,0,.09,0,0,0,0,0,.01,0,0,0,.02,0,.02,0,.02,0,.03,0,.04,0,0,0,.01,0,.02,0,0,0,0,0,.01,0,.01,0,.02-.01.03,0,0,0,.02,0,.03,0,.04-.03.05-.05.07-.02.03-.02.05-.06.07h-.02s-.02,0-.02,0l-.02-.02s-.01-.05,0-.07c0-.01.02-.03.03-.04,0-.01.01-.02.02-.04,0,0,0-.01-.01-.02,0,0,0,0,0,0-.01-.02,0-.03,0-.05,0,0,0-.02,0-.03,0-.02,0-.03,0-.04,0,0,0-.01,0-.02-.02-.05-.01-.11,0-.15,0-.01,0-.02,0-.03,0-.02,0-.04.02-.05.02-.01.06,0,.08,0,0,0,.04.03.05.03,0-.04-.03-.05-.07-.06-.01,0-.03,0-.04,0,0-.02,0-.03.01-.04.01-.01.03-.02.05-.01.03,0,.06.02.08.03,0,0-.01-.03-.01-.03-.02-.03-.05-.03-.09-.03.02-.05.06-.09.09-.13,0-.06,0-.11,0-.17,0,0,0,0,0,0,0,0-.01,0-.02,0-.04.02-.08.04-.12.06-.02,0-.05.01-.08.02,0,0-.02.01-.02.01,0,0,0,0-.01-.01,0,0-.03,0-.03,0-.02,0-.03.02-.05.03-.01,0-.03,0-.04,0,0,0,0,0,0,.01,0,0,0,.02,0,.02,0,0-.01,0-.02,0,0,0,.01.02,0,.02-.01,0-.02-.01-.03-.01,0,0-.02,0-.02,0,0,0,0-.04,0-.04,0-.02.02-.03.03-.04,0,0,0-.01.01-.02,0-.01.03-.01.04-.02.01,0,.03-.02.05-.03,0,0,.01,0,.02,0,0,0,.02,0,.02,0,0,0,0-.02,0-.02l.05-.03h.03s.04.09.08.09c0,0,0,0,0,0-.03-.03-.06-.08-.06-.13,0,0,.01-.02.01-.02.01,0,.03-.02.05-.02,0,.05.03.09.07.11l-.02-.04s-.03-.07-.02-.11c0,0,.02-.02.02-.03,0,0,.02,0,.03-.01v.02s0,.02,0,.02c0-.01.01-.03.02-.04.03-.03.08-.05.12-.05,0,0,0-.02,0-.02,0,0,0-.03,0-.03,0,0-.02,0-.02-.01,0,0,0-.04,0-.05,0-.02,0-.05.02-.07,0,0,.02,0,.03,0,0,0,.01-.02.02-.03.08-.12.26-.11.32.02,0,0,0,.01,0,.02,0,0,.01,0,.02,0,0,0,.01.01.01.02,0,.01,0,.07,0,.08,0,.01-.01.02-.03.02,0,.02-.01.04-.02.07.06,0,.09.03.08.09,0,0,0,.02,0,.03.02.02.03.04.05.06,0,0,.01.02.01.03,0,0,0,0,0,0-.01,0-.03,0-.04.01-.03.01-.06.04-.08.07.05-.02.09-.05.14-.06l.02.04s-.01.03-.02.04c-.02.02-.05.04-.07.06.03,0,.07-.01.09-.03,0,0,0-.01.02-.02.01.02.03.05.05.07-.04,0-.07.03-.1.05,0,0-.01.02-.02.02l-.07-.07v.07s-.05.06-.09.05c0,0-.02,0-.02,0,0,.05,0,.09-.02.13,0,0-.03-.02-.03-.02-.03-.02-.06-.04-.09-.03-.01,0-.02.01-.03.02h.05c.05.02.12.06.08.12-.04-.03-.1-.08-.15-.04.01,0,.02,0,.03,0,.02,0,.04.02.06.03.01,0,.04.02.04.04,0,.03-.02.06-.04.08.01.03.03.06.01.09,0,0,0,0,0,0,0,0,0,0,0,0,0,0,.01.02.01.03Z"/>
  </g>
</svg>