<?xml version="1.0" encoding="UTF-8"?>
<svg id="Layer_1" xmlns="http://www.w3.org/2000/svg" version="1.1" viewBox="0 0 32 32">
  <!-- Generator: Adobe Illustrator 29.6.1, SVG Export Plug-In . SVG Version: 2.1.1 Build 9)  -->
  <defs>
    <style>
      .st0 {
        fill: #757575;
      }

      .st1 {
        fill: #f6821f;
      }

      .st2, .st3 {
        fill: #ec1e35;
      }

      .st4 {
        fill: #fff;
      }

      .st5 {
        fill: #2196f3;
      }

      .st6 {
        fill: #39b54a;
      }

      .st6, .st3 {
        display: none;
      }

      .st7 {
        fill: #1f5bd6;
      }

      .st8 {
        fill: #f2cd0e;
      }

      .st9 {
        fill: #165fae;
      }

      .st10 {
        fill: #1eb04d;
      }
    </style>
  </defs>
  <polygon class="st6" points="-14.88 -228.52 -18.48 -207.02 -39.02 -199.4 -55.96 -213.29 -52.36 -234.8 -31.82 -242.42 -14.88 -228.52"/>
  <polygon class="st3" points="-10.53 -202.86 -7.23 -224.76 13.5 -232.83 30.94 -219.01 27.64 -197.11 6.9 -189.03 -10.53 -202.86"/>
  <g>
    <polygon class="st0" points="12.37 17.86 12.01 19.47 10.77 18.36 11.12 16.73 12.37 17.86"/>
    <polygon class="st0" points="14.13 17.38 13.76 19.03 12.18 19.53 12.52 17.89 14.13 17.38"/>
    <path class="st0" d="M16.78,17.5c-.24-.06-.48-.11-.72-.17l-.23,1.04,1.6-.51h0s.04-.2.04-.2c-.23-.05-.47-.1-.7-.16ZM11.32,16.19s-.06-.01-.08-.02l-.07.32,1.26,1.13.23-1.1c-.46-.11-.91-.22-1.34-.33ZM12.82,16.56l-.24,1.09,1.6-.51.05-.24c-.48-.12-.96-.23-1.41-.34ZM14.44,16.95l-.03.12.23-.07c-.07-.02-.13-.03-.2-.05ZM15.04,17.09l-.68.21-.36,1.64,1.6-.51.26-1.16c-.27-.06-.55-.13-.82-.19ZM10.65,16.02l.33.3.04-.21c-.12-.03-.24-.06-.38-.09ZM10.22,15.92s-.06-.01-.09-.02c-.17-.04-.35-.08-.52-.13l-.28,1.3,1.26,1.13.35-1.63-.72-.65ZM9.12,15.65l-.03.06c-.14.29-.27.53-.42.76l.48.43.25-1.18c-.1-.02-.19-.05-.29-.07ZM10.22,15.92s-.06-.01-.09-.02c-.17-.04-.35-.08-.52-.13l-.28,1.3,1.26,1.13.35-1.63-.72-.65ZM10.65,16.02l.33.3.04-.21c-.12-.03-.24-.06-.38-.09ZM11.32,16.19s-.06-.01-.08-.02l-.07.32,1.26,1.13.23-1.1c-.46-.11-.91-.22-1.34-.33ZM12.82,16.56l-.24,1.09,1.6-.51.05-.24c-.48-.12-.96-.23-1.41-.34ZM14.44,16.95l-.03.12.23-.07c-.07-.02-.13-.03-.2-.05ZM15.04,17.09l-.68.21-.36,1.64,1.6-.51.26-1.16c-.27-.06-.55-.13-.82-.19ZM26.26,20.27c-.02-.11-.06-.23-.11-.36-.17-.44-.48-.92-.78-1.39-.02,0-.03.01-.05.02-.3.09-.6.06-.87.04-.09,0-.17-.02-.25-.02-1.17-.03-2.36-.14-3.64-.33-.69-.1-1.4-.23-2.17-.38-.03,0-.07-.01-.1-.02-.06-.01-.12-.02-.18-.04v.05s-.19.46-.19.46l-.4.13-1.26.4-3.45,1.09-.86.27-.69-.62-2.65-2.39-.27-.24c-.07.1-.14.19-.22.3-.04.06-.09.12-.14.18-.17.21-.36.45-.54.61.25,1.16,2.25,4.19.08,9.3,1.21-.11,4.43-.05,8.73,2.82.29-.76.52-1.69,1.35-2,.8-.3,2.2.02,3.07.08,1.23.08,2.14-.19,2.27-1.58.05-.52-.17-1.27.24-1.66.3-.28.72-.26.7-.79,0-.23-.26-.5-.07-.7.2-.22.56-.16.67-.61.08-.38-.56-1.17.11-1.49.61-.29,1.92.01,1.68-1.14ZM16.78,17.5c-.24-.06-.48-.11-.72-.17l-.23,1.04,1.6-.51h0s.04-.2.04-.2c-.23-.05-.47-.1-.7-.16ZM15.46,11.68l-1.64.51,1.31,1.14h0l1.64-.51-1.31-1.14ZM15.81,13.35c.29,0,.6.01.91.02l.07-.33-.99.31ZM17.03,12.96l-.09.41c.46,0,.96.02,1.48.03l.21-.95-1.6.51ZM24.83,17.62c-.06-.11-.11-.21-.15-.31-.46-1.07-.02-1.18.22-2.12.09-.37.15-.76.16-1.15-.17-.05-.37-.06-.54-.07-.07,0-2.59-.03-5.52-.08-.22,0-.45,0-.67-.01-.49,0-.99-.02-1.48-.03-.07,0-.14,0-.21,0-.5-.01-1-.02-1.48-.04-.07,0-.14,0-.21,0-.16,0-.33,0-.49-.01-.23,0-.46-.01-.68-.02h0c-.21,0-.41-.01-.6-.02h0c-.14,0-.28,0-.41-.01-.35-.01-.68-.03-.98-.04-.07,0-.14,0-.21-.01-.44-.02-.82-.05-1.11-.07h0s-.04,0-.06,0c-.07,0-.17-.01-.29-.02h-.02s0,0,0,0c-.06,0-.14-.01-.21-.02-.35-.03-.78-.07-1.18-.11-.08-.08-.16-.16-.24-.24-.22-.22-.45-.43-.64-.65-.1-.11-.19-.23-.26-.34-.04-.07-.09-.17-.13-.27-.11.46-.18.92-.23,1.39,0,0,0,.01,0,.02h0c.21.13.41.26.55.36.02.01.03.02.05.04.01.01.03.02.05.04.02.01.03.03.05.04.02.01.03.03.05.05,0,0,.02.01.02.02.03.03.06.05.09.08.06.05.12.11.19.17.12.11.24.22.35.31-.15-.03-.3,0-.43.08-.05.03-.1.07-.15.11-.27.22-.49.58-.66.77-.06.07-.13.13-.2.19h0s0,.07,0,.1c.04.66.12,1.32.23,1.97.04-.03.08-.08.13-.14.19-.25.38-.55.55-.86.1-.17.19-.35.28-.52.13-.26.26-.53.38-.77.05-.11.12-.21.19-.29.19.05.38.09.58.14h0c.14.04.29.07.43.11.44.11.87.21,1.22.3.07.02.14.03.21.05.03,0,.07.02.1.02.44.11.88.22,1.32.33.05.01.11.03.16.04.47.12.94.23,1.41.34.07.02.14.03.2.05.32.08.65.15.97.23.13.03.27.06.4.09h0s.03,0,.04.01c.07.02.14.03.2.05.24.06.48.11.72.17.23.05.46.11.7.16.21.05.43.09.65.14.06.01.11.02.17.03,1.92.39,3.85.67,5.82.72.28,0,.62.08.9.02h0c-.1-.17-.2-.33-.28-.49ZM13.65,12.25l-1.64.51.57.49h0c.62.02,1.38.05,2.31.07l-1.24-1.08ZM11.92,12.98l-.05.24c.1,0,.21,0,.33.01l-.28-.25ZM10.48,11.69l-.3,1.42c.1,0,.19.02.25.02.26.02.65.05,1.22.08l.08-.39-1.26-1.13ZM9.04,10.4l-.35,1.63,1.17,1.06s.07,0,.1,0l.33-1.57-1.25-1.13ZM8.64,12.27l-.08.39s.05.05.08.07c.09.09.18.17.27.26.2.02.41.04.61.06l-.87-.79ZM21.9,7.89c-.36-.22-.75-.37-1.15-.49l-.42,2.47-2.35.88.75.64.68.59-.2.92h0s-.11.51-.11.51c.09,0,.19,0,.29,0,.01,0,.02,0,.04,0,1.33.02,2.84.04,4.56.07.44,0,.53,0,.56,0,.1,0,.25.01.4.04.04,0,.09.01.13.02-.08-2.2-1.22-4.53-3.16-5.67ZM19.5,7.16s-.03.05-.04.08c-.02.04-.02.08-.08.09-.03,0-.07,0-.1,0-.01,0-.03,0-.04,0-.07,0-.14-.03-.19.02-.07.08-.09.22-.14.32-.02.05-.05.08-.08.13-.04.06-.08.14-.12.2-.03.05-.07.1-.1.15-.04.07-.08.11-.12.19-.03.06-.06.12-.08.19-.04.14-.05.28-.09.41,0,0,0,.01-.01.02,0,.02,0,.08.02.09,0,0,.02,0,.03,0,0,0,.02.06.02.07,0,.02,0,.04-.03.05-.03,0-.05,0-.08-.01-.03,0-.06,0-.1-.02-.03-.01-.02-.03-.02-.05,0-.06,0-.13,0-.18,0,0,0-.02,0-.02,0-.02,0-.04,0-.06.02-.12.04-.24.05-.36,0-.05.01-.08.02-.13,0-.01,0-.03.01-.04,0,0,0,0,0,0-.01,0-.04,0-.05,0-.01.04-.04.07-.06.11-.04.09-.07.22-.09.32,0,.04,0,.07-.01.11-.01.04-.02.06-.02.1,0,.02-.03.09-.01.11,0,0,.02,0,.03.01.01.01.03.08.03.1,0,.02-.02.02-.04.02-.03,0-.08,0-.11-.02-.02,0-.05-.01-.06-.02,0-.02,0-.03,0-.04,0-.08-.04-.12-.03-.2.02-.12.04-.24.05-.37,0-.1,0-.2.03-.3-.05-.01-.1-.03-.16-.04-.1-.03-.21-.06-.3-.11-.02,0-.03-.03-.05-.03-.02,0-.08.09-.09.12-.04.05-.09.1-.13.13-.05.04-.12.07-.16.12-.03.04-.05.09-.06.13,0,.01-.02.07-.01.07,0,0,.03,0,.04.03,0,.02.01.07-.02.07,0,0-.06,0-.07,0-.02,0-.06-.02-.08-.03-.07-.04-.03-.07-.02-.13,0-.05.02-.1.03-.15,0-.02.01-.06.02-.08.01-.03.04-.04.07-.06.06-.05.12-.11.13-.19,0,0,0-.02,0-.02-.04.06-.1.11-.15.16-.03.03-.07.05-.1.07-.1.08-.15.19-.17.31.01,0,.04,0,.05.02,0,0,0,.07,0,.08,0,.02-.03,0-.05,0-.05,0-.11-.02-.15-.03-.03-.01-.03-.04-.03-.07.01-.1.05-.2.09-.3.01-.03.02-.05.03-.08.02-.04.06-.04.1-.06.09-.08.08-.22.1-.32,0-.04.02-.08.03-.11-.01,0,0,0-.01,0-.02.02-.06.04-.09.06-.01,0-.1.04-.1.04,0,0-.01,0-.02,0-.02,0-.07.01-.09.01-.07-.01-.12,0-.19-.01-.05,0-.11-.02-.16-.03,0,0-.02,0-.03,0-.01,0-.02.02-.03,0,.01-.02.02-.04.04-.06.09-.1.2-.08.32-.1.2-.05.29-.12.42-.27.04-.05.15-.15.2-.18.09-.06.26-.06.36-.04.22.04.44.16.67.16.07,0,.14-.04.21-.05.05,0,.11,0,.15-.03.03-.02.06-.06.09-.1-.19,0-.38-.02-.57-.03-.79-.04-1.58-.01-2.36.06l-.27,1.59,2.06,1.7,2.51-.94.38-2.19c-.23-.05-.47-.08-.7-.11ZM17.26,11.12l-1.64.51,1.31,1.14,1.64-.51-1.31-1.14ZM15.82,9.87l-1.64.51,1.31,1.14,1.64-.51-1.31-1.14ZM14.38,8.62l-1.64.51,1.31,1.14,1.64-.51-1.31-1.14ZM14.02,10.44l-1.64.51,1.31,1.14,1.64-.51-1.31-1.14ZM13.4,7.44s0,.01,0,.01c0,0,.02.05.02.07,0,.03,0,.06-.01.08,0,.01.01.03,0,.05,0,.04-.04.07-.04.09,0,.01.01.05,0,.08,0,.02-.02.04-.02.06-.01.06.01.1-.03.16-.08.09-.23.03-.21-.09,0-.04.03-.09.04-.13,0-.01,0-.03,0-.05,0,0,0-.02,0-.03,0-.02-.04-.06-.04-.1,0-.04.01-.07.01-.1,0,0,0-.03-.01-.04-.1.02-.19.05-.29.07,0,0,0,.02,0,.03,0,.02-.02.04-.02.06,0,.01.02.04.02.06,0,.08-.06.1-.09.15-.04.06-.05.11-.13.14h-.04s-.05,0-.05,0l-.03-.03s-.03-.09,0-.14c.01-.03.05-.05.07-.08.01-.02.02-.05.03-.07,0,0-.01-.02-.02-.03-.21.06-.41.12-.62.18l.88.75,1.98-.7.13-.72c-.51.07-1.01.16-1.51.27ZM12.57,9.19l-1.64.51,1.31,1.14,1.64-.51-1.31-1.14ZM12.21,11l-1.64.51,1.31,1.14,1.64-.51-1.31-1.14ZM10.77,9.75l-1.64.51,1.31,1.14,1.64-.51-1.31-1.14ZM10.62,8.3c-.39.16-.77.32-1.14.5l.64.58,1.04-.32.23-1.05c-.26.09-.51.19-.77.29ZM9.12,15.65l-.03.06c-.14.29-.27.53-.42.76l.48.43.25-1.18c-.1-.02-.19-.05-.29-.07ZM10.22,15.92s-.06-.01-.09-.02c-.17-.04-.35-.08-.52-.13l-.28,1.3,1.26,1.13.35-1.63-.72-.65ZM10.65,16.02l.33.3.04-.21c-.12-.03-.24-.06-.38-.09ZM11.32,16.19s-.06-.01-.08-.02l-.07.32,1.26,1.13.23-1.1c-.46-.11-.91-.22-1.34-.33ZM12.82,16.56l-.24,1.09,1.6-.51.05-.24c-.48-.12-.96-.23-1.41-.34ZM14.44,16.95l-.03.12.23-.07c-.07-.02-.13-.03-.2-.05ZM15.04,17.09l-.68.21-.36,1.64,1.6-.51.26-1.16c-.27-.06-.55-.13-.82-.19ZM16.78,17.5c-.24-.06-.48-.11-.72-.17l-.23,1.04,1.6-.51h0s.04-.2.04-.2c-.23-.05-.47-.1-.7-.16ZM9.12,15.65l-.03.06c-.14.29-.27.53-.42.76l.48.43.25-1.18c-.1-.02-.19-.05-.29-.07Z"/>
    <path class="st5" d="M16,.96C7.71.96.96,7.71.96,16s6.75,15.04,15.04,15.04,15.04-6.75,15.04-15.04S24.29.96,16,.96ZM16,30.63c-8.07,0-14.63-6.56-14.63-14.63S7.93,1.37,16,1.37s14.63,6.56,14.63,14.63-6.56,14.63-14.63,14.63Z"/>
    <path class="st4" d="M9.28,19.16"/>
    <polygon class="st4" points="12.37 17.86 12.01 19.47 10.77 18.36 11.12 16.73 12.37 17.86"/>
    <polygon class="st4" points="14.13 17.38 13.76 19.03 12.18 19.53 12.52 17.89 14.13 17.38"/>
    <path class="st4" d="M9.41,15.72l-.25,1.18-.48-.43c.14-.23.28-.47.42-.76l.03-.06c.09.02.19.05.29.07Z"/>
    <path class="st4" d="M10.94,16.56l-.35,1.63-1.26-1.13.28-1.3c.17.04.35.09.52.13.03,0,.06.01.09.02l.72.65Z"/>
    <path class="st4" d="M11.03,16.12l-.04.21-.33-.3c.13.03.26.06.38.09Z"/>
    <path class="st4" d="M12.66,16.52l-.23,1.1-1.26-1.13.07-.32s.06.01.08.02c.43.11.87.22,1.34.33Z"/>
    <path class="st4" d="M14.23,16.9l-.05.24-1.6.51.24-1.09c.46.11.93.23,1.41.34Z"/>
    <path class="st4" d="M14.64,17l-.23.07.03-.12c.07.02.13.03.2.05Z"/>
    <path class="st4" d="M15.85,17.29l-.26,1.16-1.6.51.36-1.64.68-.21c.27.06.54.13.82.19Z"/>
    <path class="st4" d="M17.48,17.66l-.04.2h0s-1.6.51-1.6.51l.23-1.04c.24.06.48.11.72.17.23.05.47.11.7.16Z"/>
    <polygon class="st4" points="12.08 10.89 10.45 11.4 9.13 10.26 10.77 9.75 12.08 10.89"/>
    <polygon class="st4" points="13.52 12.14 11.89 12.65 10.57 11.51 12.21 11 13.52 12.14"/>
    <polygon class="st4" points="13.89 10.32 12.25 10.84 10.94 9.7 12.57 9.19 13.89 10.32"/>
    <polygon class="st4" points="15.33 11.57 13.69 12.08 12.38 10.95 14.02 10.44 15.33 11.57"/>
    <polygon class="st4" points="15.69 9.76 14.05 10.27 12.74 9.14 14.38 8.62 15.69 9.76"/>
    <polygon class="st4" points="17.13 11.01 15.49 11.52 14.18 10.38 15.82 9.87 17.13 11.01"/>
    <polygon class="st4" points="18.57 12.26 16.93 12.77 15.62 11.63 17.26 11.12 18.57 12.26"/>
    <polygon class="st4" points="16.77 12.82 15.13 13.33 15.13 13.33 13.82 12.2 15.46 11.68 16.77 12.82"/>
    <path class="st4" d="M16.8,13.04l-.07.33c-.32,0-.62-.01-.91-.02l.99-.31Z"/>
    <path class="st4" d="M18.63,12.45l-.21.95c-.53,0-1.02-.02-1.48-.03l.09-.41,1.6-.51Z"/>
    <path class="st4" d="M9.52,13.05c-.2-.02-.41-.04-.61-.06-.09-.09-.18-.18-.27-.26-.03-.02-.05-.05-.08-.07l.08-.39.87.79Z"/>
    <path class="st4" d="M10.3,11.53l-.33,1.57s-.06,0-.1,0l-1.17-1.06.35-1.63,1.25,1.13Z"/>
    <path class="st4" d="M11.73,12.82l-.08.39c-.57-.03-.96-.06-1.22-.08-.06,0-.15-.01-.25-.02l.3-1.42,1.26,1.13Z"/>
    <path class="st4" d="M12.19,13.24c-.12,0-.23,0-.33-.01l.05-.24.28.25Z"/>
    <path class="st4" d="M14.9,13.33c-.93-.02-1.69-.05-2.31-.07h0l-.57-.49,1.64-.51,1.24,1.08Z"/>
    <path class="st4" d="M7.36,11.8l-.4-.37.14-.23c.1.16.18.39.26.6Z"/>
    <path class="st4" d="M18.99,13.89l-.18.83-.58,2.63c-.22-.04-.43-.09-.65-.14-.23-.05-.46-.1-.7-.16-.24-.06-.48-.11-.72-.17-.07-.01-.14-.03-.2-.05-.01,0-.03,0-.04-.01h0c-.13-.03-.27-.06-.4-.09-.32-.08-.65-.15-.97-.23-.07-.02-.14-.03-.2-.05-.47-.11-.94-.23-1.41-.34-.05-.01-.11-.03-.16-.04-.44-.11-.88-.22-1.32-.33-.03,0-.07-.02-.1-.02-.06-.02-.13-.03-.21-.05-.35-.09-.78-.19-1.22-.3-.14-.04-.29-.07-.43-.11h0c-.2-.05-.4-.1-.58-.14-.06.09-.13.18-.19.29-.12.24-.24.5-.38.77-.09.17-.18.35-.28.52l-.83-.74-.08-.23-.03-.08s.02-.01.02-.02h0c.07-.06.14-.13.2-.19.17-.19.39-.55.66-.77.05-.04.1-.08.15-.11.13-.08.28-.12.43-.08-.1-.09-.23-.2-.35-.31-.06-.06-.13-.12-.19-.17-.03-.03-.06-.06-.09-.08,0,0-.02-.01-.02-.02-.02-.02-.04-.03-.05-.05-.02-.01-.03-.03-.05-.04-.02-.01-.03-.03-.05-.04-.01-.01-.03-.02-.05-.04-.14-.1-.34-.23-.55-.37l.61-.79c.19.21.42.43.64.65.08.08.16.16.24.24.4.05.83.08,1.18.11.08,0,.15.01.21.02h0s.02,0,.02,0c.12,0,.22.02.29.02.02,0,.04,0,.06,0h0c.29.03.66.05,1.11.07.07,0,.14,0,.21.01.3.01.63.03.98.04.13,0,.27,0,.41.01h0c.19,0,.4.01.6.02h0c.22,0,.45.01.68.02.16,0,.32,0,.49.01.07,0,.14,0,.21,0,.48.01.98.02,1.48.04.07,0,.14,0,.21,0,.5,0,.99.02,1.48.03.23,0,.45,0,.67.01Z"/>
    <polygon class="st4" points="11.1 5.23 10.84 6.59 9.53 7.04 9.43 6.95 10.67 6.56 10.94 5.1 11.1 5.23"/>
    <polygon class="st4" points="11.39 8 11.39 8.01 11.15 9.06 10.11 9.38 9.48 8.8 9.48 8.8 9.31 8.65 9.55 7.59 10.59 7.27 11.39 8"/>
    <path class="st4" d="M13.11,6.14l-.02.15h-.21s0-.02,0-.03c0-.01,0-.08.01-.08.05,0,.1-.03.14-.04.01,0,.08,0,.08,0Z"/>
    <path class="st4" d="M13.15,5.82l-.03.23s-.04,0-.04,0c-.06,0-.11.05-.17.05,0,0,0,0,0-.01,0-.02,0-.05.01-.06,0-.01.04-.04.05-.06.03-.05.06-.1.08-.16l.11.02Z"/>
    <path class="st4" d="M13.29,6.18l-.04.14-.1-.02.02-.14s.03,0,.04,0c.03,0,.06,0,.09.02Z"/>
    <path class="st4" d="M13.38,5.85l-.07.23s-.09-.02-.14-.03l.03-.23.17.02Z"/>
    <path class="st4" d="M13.64,6.39l-.03.07c-.1-.06-.21-.1-.32-.13l.05-.14s.04,0,.06.02c.03.01.05.04.07.06.05.04.11.09.17.12Z"/>
    <path class="st4" d="M13.69,6.25l-.02.06s-.09-.05-.1-.06c-.04-.03-.08-.08-.13-.11-.02-.02-.05-.02-.07-.04l.07-.24.13.02c-.01.06-.01.11,0,.17.02.08.06.14.11.2Z"/>
    <path class="st4" d="M13.73,5.62s-.02.04-.04.06c-.13.12-.4.14-.55.04-.05-.03-.09-.08-.09-.14.07.14.25.17.39.16.08,0,.17-.03.24-.08l.04-.04Z"/>
    <path class="st4" d="M13.73,5.24c0-.12-.09-.22-.2-.27-.13-.05-.29,0-.37.11-.06.08-.07.15-.07.25,0,.12.04.23.16.27.06.02.27.02.33,0,.15-.07.16-.21.15-.36ZM13.69,5.35c0,.16-.08.22-.23.22-.07,0-.17,0-.22-.03-.08-.05-.1-.12-.1-.21,0-.12.02-.25.17-.27.08,0,.16,0,.23,0,.01,0,.04,0,.05,0,.12.05.11.16.11.27Z"/>
    <path class="st4" d="M13.56,4.48l-1.98.7-.38,2.05.72.61.88.75,1.98-.7.13-.72.25-1.34-1.6-1.36ZM14.27,6.38s.05.08.05.09c0,.02-.03.04-.02.05,0,.02.05.04.05.05,0,0,0,.01,0,.02,0,.01.05.04.06.05.02.01.08.07.08.08,0,0,0,.01,0,.02,0,0,.01.01.02.02.02.03.05.09.03.13,0,0-.01,0-.02.01,0,0,0,.02-.02.03,0,0-.03,0-.04,0,0,0-.01.02-.04.02-.04,0,0-.06,0-.08,0-.03-.04-.07-.07-.07-.01.03.02.06,0,.09-.03.03-.06-.04-.08-.07-.01-.03-.04-.07-.05-.1,0-.01,0-.04-.01-.05,0-.01-.03-.02-.04-.04-.01,0-.02.02-.04.01-.02,0-.04-.04-.06-.06-.02-.02-.04-.05-.06-.07.04-.06.11-.12.18-.14.02,0,.05-.01.07,0ZM13.42,7.52s0,.06-.01.08c0,.01.01.03,0,.05,0,.04-.04.07-.04.09,0,.01.01.05,0,.08,0,.02-.02.04-.02.06-.01.06.01.1-.03.16-.08.09-.23.03-.21-.09,0-.04.03-.09.04-.13,0-.01,0-.03,0-.05,0,0,0-.02,0-.03,0-.02-.04-.06-.04-.1,0-.04.01-.07.01-.1,0,0,0-.03-.01-.04,0,0,0,0,0,0-.02-.11-.04-.23-.04-.34,0-.1.02-.22.02-.31,0,0,0-.01,0-.01-.04.06-.08.12-.13.18-.03.04-.07.07-.1.1-.01.02-.02.04-.03.06,0,.06.03.13,0,.19,0,0-.01.02-.01.03,0,0,.01.03.02.04.01.05,0,.05,0,.09,0,.01,0,.03,0,.04,0,0,0,.02,0,.03,0,.02-.02.04-.02.06,0,.01.02.04.02.06,0,.08-.06.1-.09.15-.04.06-.05.11-.13.14h-.04s-.05,0-.05,0l-.03-.03s-.03-.09,0-.14c.01-.03.05-.05.07-.08.01-.02.02-.05.03-.07,0,0-.01-.02-.02-.03,0,0-.01-.01-.01-.02-.02-.04,0-.06-.01-.1,0-.01-.01-.04-.01-.06,0-.03.02-.06.02-.08,0,0-.01-.02-.01-.03-.04-.09-.03-.22,0-.31,0-.02.01-.03.02-.06,0-.03,0-.08.03-.1.04-.02.12,0,.17,0,.01,0,.09.05.09.05-.02-.07-.07-.11-.14-.13-.02,0-.05,0-.08,0,0-.03,0-.05.03-.08.02-.03.06-.03.1-.02.06.01.11.04.16.07,0,0-.02-.06-.03-.06-.04-.06-.11-.06-.18-.06.03-.11.12-.18.19-.26-.02-.11,0-.23,0-.34,0,0,0,0,0,0-.01,0-.02,0-.03.01-.08.04-.16.09-.24.12-.05.02-.11.03-.16.04-.01,0-.03.02-.04.02-.01,0-.02-.02-.03-.02,0,0-.06.02-.07.02-.03.02-.06.04-.1.05-.02,0-.06,0-.08.02-.01,0,0,.02.01.02,0,.01.01.03,0,.04-.02,0-.02-.01-.04-.02,0,.02.02.03,0,.05-.02.01-.04-.02-.06-.03-.01,0-.03,0-.04-.02,0-.01,0-.07,0-.09,0-.03.04-.05.05-.08,0-.01.01-.02.02-.03.02-.02.06-.03.08-.04.03-.01.07-.05.1-.05.01,0,.03,0,.04,0,0,0,.03-.02.04-.02,0,0,0-.03,0-.04l.1-.07h.06c.02.07.08.19.16.19,0,0,.01,0,.02,0-.07-.07-.13-.16-.12-.26,0,0,.02-.03.03-.03.02,0,.06-.05.09-.04.01.09.05.19.14.22l-.05-.08c-.03-.07-.05-.14-.03-.22,0,0,.04-.04.05-.05.02,0,.03-.02.05-.03v.03s0,.04,0,.04c.01-.03.02-.05.04-.08.05-.07.16-.1.24-.11,0,0-.02-.04-.02-.05,0-.02-.01-.06-.02-.06,0,0-.03-.02-.04-.03-.02-.02-.02-.08-.02-.1,0-.04,0-.11.03-.14.02-.02.05-.01.05-.02,0,0,.03-.05.04-.06.17-.24.52-.22.66.05,0,0,0,.03.01.03,0,0,.02,0,.03.01.02,0,.03.03.03.05,0,.03,0,.14,0,.17,0,.03-.03.03-.05.04,0,.05-.03.09-.05.13.12.02.18.05.17.18,0,.02-.01.03,0,.05.03.04.07.07.1.12,0,0,.03.05.03.05,0,0,0,0-.01,0-.02,0-.05.02-.08.03-.06.03-.13.08-.16.14.1-.03.18-.11.28-.13l.03.08s-.03.06-.04.08c-.04.05-.1.08-.15.11.07,0,.14-.02.19-.07.01-.01.02-.03.03-.03.03.05.06.1.1.14-.07.01-.14.05-.2.11-.01.01-.02.03-.04.04l-.15-.14-.02.14c-.03.08-.09.12-.17.11-.02,0-.03,0-.05,0,0,.09-.02.19-.04.27,0,0-.05-.04-.06-.05-.06-.04-.11-.08-.19-.06-.02,0-.04.02-.06.04h.1c.1.03.24.13.17.25-.08-.06-.2-.17-.3-.09.02,0,.04.01.06.02.04.01.08.03.12.05.02.01.07.04.08.07,0,.06-.04.12-.08.16.03.06.06.12.03.19,0,0,0,0,0,.01,0,0,0,.01,0,.01,0,0,.02.05.02.07Z"/>
    <path class="st4" d="M17.57,4.3l-.09.47-1.78.61-.31-.27,1.19-.45h0c0,.1.13.14.2.07.04-.04.04-.11,0-.15l.79-.3Z"/>
    <path class="st4" d="M18.26,5.14l-.04-.03-.21.08-1.41.53h0l-.89.34-.05.31-.13.74-.27,1.59,2.06,1.7,2.51-.94.38-2.19.08-.45-2.02-1.67ZM19.45,7.23s-.02.08-.08.09c-.03,0-.07,0-.1,0-.01,0-.03,0-.04,0-.07,0-.14-.03-.19.02-.07.08-.09.22-.14.32-.02.05-.05.08-.08.13-.04.06-.08.14-.12.2-.03.05-.07.1-.1.15-.04.07-.08.11-.12.19-.03.06-.06.12-.08.19-.04.14-.05.28-.09.41,0,0,0,.01-.01.02,0,.02,0,.08.02.09,0,0,.02,0,.03,0,0,0,.02.06.02.07,0,.02,0,.04-.03.05-.03,0-.05,0-.08-.01-.03,0-.06,0-.1-.02-.03-.01-.02-.03-.02-.05,0-.06,0-.13,0-.18,0,0,0-.02,0-.02,0-.02,0-.04,0-.06.02-.12.04-.24.05-.36,0-.05.01-.08.02-.13,0-.01,0-.03.01-.04,0,0,0,0,0,0-.01,0-.04,0-.05,0-.01.04-.04.07-.06.11-.04.09-.07.22-.09.32,0,.04,0,.07-.01.11-.01.04-.02.06-.02.1,0,.02-.03.09-.01.11,0,0,.02,0,.03.01.01.01.03.08.03.1,0,.02-.02.02-.04.02-.03,0-.08,0-.11-.02-.02,0-.05-.01-.06-.02,0-.02,0-.03,0-.04,0-.08-.04-.12-.03-.2.02-.12.04-.24.05-.37,0-.1,0-.2.03-.3-.05-.01-.1-.03-.16-.04-.1-.03-.21-.06-.3-.11-.02,0-.03-.03-.05-.03-.02,0-.08.09-.09.12-.04.05-.09.1-.13.13-.05.04-.12.07-.16.12-.03.04-.05.09-.06.13,0,.01-.02.07-.01.07,0,0,.03,0,.04.03,0,.02.01.07-.02.07,0,0-.06,0-.07,0-.02,0-.06-.02-.08-.03-.07-.04-.03-.07-.02-.13,0-.05.02-.1.03-.15,0-.02.01-.06.02-.08.01-.03.04-.04.07-.06.06-.05.12-.11.13-.19,0,0,0-.02,0-.02-.04.06-.1.11-.15.16-.03.03-.07.05-.1.07-.1.08-.15.19-.17.31.01,0,.04,0,.05.02,0,0,0,.07,0,.08,0,.02-.03,0-.05,0-.05,0-.11-.02-.15-.03-.03-.01-.03-.04-.03-.07.01-.1.05-.2.09-.3.01-.03.02-.05.03-.08.02-.04.06-.04.1-.06.09-.08.08-.22.1-.32,0-.04.02-.08.03-.11-.01,0,0,0-.01,0-.02.02-.06.04-.09.06-.01,0-.1.04-.1.04,0,0-.01,0-.02,0-.02,0-.07.01-.09.01-.07-.01-.12,0-.19-.01-.05,0-.11-.02-.16-.03,0,0-.02,0-.03,0-.01,0-.02.02-.03,0,.01-.02.02-.04.04-.06.09-.1.2-.08.32-.1.2-.05.29-.12.42-.27.04-.05.15-.15.2-.18.09-.06.26-.06.36-.04.22.04.44.16.67.16.07,0,.14-.04.21-.05.05,0,.11,0,.15-.03.03-.02.06-.06.09-.1.03-.04.07-.09.09-.13.01-.02.05-.08.05-.1,0-.01,0-.04,0-.06,0-.04,0-.04.03-.07.06-.03.12-.07.18-.1.03-.02.05-.02.08-.02.18,0,.35.05.45.2.03.04.03.06.03.11,0,.03.02.03.04.05,0,0,.02.02.03.03.02.02.08.06.09.08,0,.02,0,.06-.02.08,0,0,0,0,0,0-.01.03-.03.05-.04.08Z"/>
    <polygon class="st10" points="11.39 8 11.39 8.01 11.15 9.06 10.11 9.38 9.48 8.8 9.48 8.8 9.31 8.65 9.55 7.59 10.59 7.27 11.39 8"/>
    <path class="st5" d="M9.31,5.9l-.03.13s-.05-.02-.07-.05c-.05-.09-.08-.2-.09-.31,0-.02,0-.05,0-.07,0-.01.03-.02.04-.03.01,0,.01-.03.03,0,.01.01.02.03.04.05,0,0,.02.02.02.02l.06.28Z"/>
    <path class="st5" d="M9.2,5.52s0-.04.01-.06c0-.05.01-.1.02-.15,0-.04.04-.08.07-.11.02-.02.04-.03.05-.05.04,0,.07,0,.11,0l.1.1-.09.23c-.06.04-.12.08-.18.12,0,0-.01.01-.02.01,0,0-.07-.07-.07-.08Z"/>
    <path class="st5" d="M9.46,5.12h-.07s0-.01,0-.01c.05-.04.15-.08.21-.1,0,0,.02,0,.03,0l-.18.12Z"/>
    <path class="st5" d="M9.68,6.26s-.07.03-.08.03c-.02,0-.11-.04-.13-.06l-.17-.18v-.03s.03-.1.03-.1l.24.06.17.18s0,.02,0,.02c0,.02-.04.07-.05.08Z"/>
    <path class="st5" d="M9.77,6.32h-.11s0-.02,0-.02c.04-.01.06,0,.1.01,0,0,.02,0,.02.01Z"/>
    <path class="st5" d="M9.65,5.68l-.15-.19h-.01s.09-.25.09-.25l.28-.05h.02c.05.07.11.12.16.18l-.1.25-.26.06h-.02Z"/>
    <path class="st5" d="M10.14,5.85l-.11.24s-.02,0-.03,0c-.08.02-.16.03-.24.05l-.17-.18v-.02s.08-.24.08-.24l.27-.06.2.21Z"/>
    <path class="st5" d="M10.13,6.21h.05s-.05.02-.07.03l.02-.03Z"/>
    <path class="st5" d="M9.76,4.99h-.02c.06-.01.12-.01.18,0,.09.02.19.06.27.11,0,0,.01,0,.01.02l-.3-.1s-.09-.02-.14-.02Z"/>
    <path class="st5" d="M10.2,5.14l.12.17-.03.1s-.03,0-.04,0c0,0-.01,0-.02,0-.06-.01-.12-.02-.17-.04-.04-.03-.07-.07-.1-.11-.01-.02-.06-.06-.07-.07,0-.02,0-.04,0-.06,0-.01,0-.02,0-.03,0-.02.01-.03.01-.05,0,0,.01,0,.02,0,.08.02.16.07.25.09h.01Z"/>
    <path class="st5" d="M10.4,5.8v.14s-.1.15-.13.18c-.04.04-.09.05-.14.07l-.07-.09.11-.24s.01,0,.02-.01c.03-.02.06-.04.09-.06.01,0,.05-.04.06-.05,0,0,0,0,.01,0,0,0,.05.06.05.07Z"/>
    <path class="st5" d="M10.31,5.41s.02-.07.03-.09c0,0,.02-.01.02-.02.01,0,0,0,.01,0,.08.13.12.32.09.47,0,0,0,.02,0,.03,0,0-.02,0-.03,0,0,0-.06-.07-.06-.08-.02-.1-.04-.2-.05-.3Z"/>
    <path class="st5" d="M10.94,5.1h0s-.89-.77-.89-.77l-1.31.45-.26,1.35.95.82.1.09,1.31-.45.26-1.35-.16-.13ZM9.1,5.78c-.09-.51.35-.93.85-.82.52.11.73.75.39,1.15-.38.45-1.13.26-1.24-.33Z"/>
    <path class="st10" d="M9.52,13.05c-.2-.02-.41-.04-.61-.06-.09-.09-.18-.18-.27-.26-.03-.02-.05-.05-.08-.07l.08-.39.87.79Z"/>
    <path class="st10" d="M9.87,13.56l-.31,1.47-.5-.45-.76-.68.1-.49.04-.21c.08.08.16.16.24.24.4.05.83.08,1.18.11Z"/>
    <polygon class="st9" points="12.37 17.86 12.01 19.47 10.77 18.36 11.12 16.73 12.37 17.86"/>
    <path class="st2" d="M10.94,16.56l-.35,1.63-1.26-1.13.28-1.3c.17.04.35.09.52.13.03,0,.06.01.09.02l.72.65Z"/>
    <path class="st2" d="M15.85,17.29l-.26,1.16-1.6.51.36-1.64.68-.21c.27.06.54.13.82.19Z"/>
    <path class="st2" d="M15.96,16.8v.03s-.03,0-.05-.01h.05Z"/>
    <path class="st2" d="M12.19,13.24c-.12,0-.23,0-.33-.01l.05-.24.28.25Z"/>
    <path class="st2" d="M13.17,14.11h0s-.35,1.63-.35,1.63l-1.26-1.13.2-.93c.3.01.63.03.98.04l.43.39Z"/>
    <path class="st1" d="M12.66,16.52l-.23,1.1-1.26-1.13.07-.32s.06.01.08.02c.43.11.87.22,1.34.33Z"/>
    <path class="st1" d="M12.77,15.99v.07c-.46-.11-.9-.22-1.34-.33-.03,0-.07-.02-.1-.02l.18-.85,1.26,1.13Z"/>
    <path class="st9" d="M11.55,13.68l-.16.78-.94-.85c.29.03.66.05,1.11.07Z"/>
    <path class="st9" d="M11.73,12.82l-.08.39c-.57-.03-.96-.06-1.22-.08-.06,0-.15-.01-.25-.02l.3-1.42,1.26,1.13Z"/>
    <path class="st9" d="M11.03,16.12l-.04.21-.33-.3c.13.03.26.06.38.09Z"/>
    <path class="st9" d="M11.34,14.69l-.21.96c-.35-.09-.78-.19-1.22-.3l-.18-.16.35-1.62h0s.02,0,.02,0l1.24,1.12Z"/>
    <path class="st8" d="M10.3,11.53l-.33,1.57s-.06,0-.1,0l-1.17-1.06.35-1.63,1.25,1.13Z"/>
    <path class="st1" d="M9.48,15.25c-.2-.05-.4-.1-.58-.14-.06.09-.13.18-.19.29-.12.24-.24.5-.38.77l-.44-.4h0s.18-.87.18-.87l.08-.37c.13-.08.28-.12.43-.08-.1-.09-.23-.2-.35-.31h0s.35.31.35.31l.04.03s0,0,.01,0l.4.36.44.4Z"/>
    <path class="st1" d="M9.41,15.72l-.25,1.18-.48-.43c.14-.23.28-.47.42-.76l.03-.06c.09.02.19.05.29.07Z"/>
    <path class="st8" d="M14.92,13.8l-.32,1.46-1.6.51.37-1.64,1.08-.34c.16,0,.32,0,.49.01Z"/>
    <path class="st10" d="M14.23,16.9l-.05.24-1.6.51.24-1.09c.46.11.93.23,1.41.34Z"/>
    <path class="st10" d="M14.54,15.5l-.21.94c-.47-.11-.94-.23-1.41-.34l.02-.09,1.6-.51Z"/>
    <polygon class="st1" points="14.13 17.38 13.76 19.03 12.18 19.53 12.52 17.89 14.13 17.38"/>
    <path class="st9" d="M16.62,13.84l-.19.84-1.6.51.31-1.38c.48.01.98.02,1.48.04Z"/>
    <path class="st9" d="M16.8,13.04l-.07.33c-.32,0-.62-.01-.91-.02l.99-.31Z"/>
    <path class="st1" d="M14.64,17l-.23.07.03-.12c.07.02.13.03.2.05Z"/>
    <path class="st1" d="M16.38,14.92l-.37,1.64-.51.16c-.32-.08-.65-.15-.97-.23l.24-1.07,1.6-.51Z"/>
    <path class="st8" d="M18.32,13.87l-.05.22-1.6.51.17-.76c.5,0,.99.02,1.48.03Z"/>
    <path class="st8" d="M18.63,12.45l-.21.95c-.53,0-1.02-.02-1.48-.03l.09-.41,1.6-.51Z"/>
    <polygon class="st2" points="16.61 14.85 16.25 16.49 17.85 15.98 18.21 14.34 16.61 14.85"/>
    <path class="st1" d="M17.48,17.66l-.04.2h0s-1.6.51-1.6.51l.23-1.04c.24.06.48.11.72.17.23.05.47.11.7.16Z"/>
    <path class="st1" d="M17.8,16.22l-.22.98c-.23-.05-.46-.1-.7-.16-.24-.06-.48-.11-.72-.17l.03-.15,1.6-.51Z"/>
    <polygon class="st1" points="13.52 12.14 11.89 12.65 10.57 11.51 12.21 11 13.52 12.14"/>
    <polygon class="st2" points="13.89 10.32 12.25 10.84 10.94 9.7 12.57 9.19 13.89 10.32"/>
    <path class="st2" d="M13.75,13.76l-.42.13-.18-.15c.19,0,.4.01.6.02Z"/>
    <path class="st2" d="M14.9,13.33c-.93-.02-1.69-.05-2.31-.07h0l-.57-.49,1.64-.51,1.24,1.08Z"/>
    <polygon class="st1" points="15.33 11.57 13.69 12.08 12.38 10.95 14.02 10.44 15.33 11.57"/>
    <polygon class="st9" points="15.69 9.76 14.05 10.27 12.74 9.14 14.38 8.62 15.69 9.76"/>
    <polygon class="st9" points="16.77 12.82 15.13 13.33 15.13 13.33 13.82 12.2 15.46 11.68 16.77 12.82"/>
    <polygon class="st10" points="17.13 11.01 15.49 11.52 14.18 10.38 15.82 9.87 17.13 11.01"/>
    <polygon class="st1" points="18.57 12.26 16.93 12.77 15.62 11.63 17.26 11.12 18.57 12.26"/>
    <path class="st7" d="M9.95,19.78s.01-.04.01-.06c0,.02,0,.04-.01.06Z"/>
    <path class="st4" d="M25.45,14.49c-.08,1.05-.2,2.06-.11,3.11.02.21.09.41-.16.48-.02,0-.05.01-.07.02-.28.06-.62-.01-.9-.02-1.97-.05-3.9-.33-5.82-.72-.06-.01-.11-.02-.17-.03-.22-.04-.43-.09-.65-.14-.23-.05-.46-.1-.7-.16-.24-.06-.48-.11-.72-.17-.07-.01-.14-.03-.2-.05-.01,0-.03,0-.04-.01h0c-.13-.03-.27-.06-.4-.09-.32-.08-.65-.15-.97-.23-.07-.02-.14-.03-.2-.05-.47-.11-.94-.23-1.41-.34-.05-.01-.11-.03-.16-.04-.44-.11-.88-.22-1.32-.33-.03,0-.07-.02-.1-.02-.06-.02-.13-.03-.21-.05-.35-.09-.78-.19-1.22-.3-.14-.04-.29-.07-.43-.11h0c-.2-.05-.4-.1-.58-.14-.06.09-.13.18-.19.29-.12.24-.24.5-.38.77-.09.17-.18.35-.28.52-.17.31-.36.61-.55.86-.04.06-.09.1-.13.14-.3.25-.52-.03-.8-.35-.8-.92-.06-1.18.54-1.7,0,0,.02-.01.02-.02h0c.07-.06.14-.13.2-.19.17-.19.39-.55.66-.77.05-.04.1-.08.15-.11.13-.08.28-.12.43-.08-.1-.09-.23-.2-.35-.31-.06-.06-.13-.12-.19-.17-.03-.03-.06-.06-.09-.08,0,0-.02-.01-.02-.02-.02-.02-.04-.03-.05-.05-.02-.01-.03-.03-.05-.04-.02-.01-.03-.03-.05-.04-.01-.01-.03-.02-.05-.04-.14-.1-.34-.23-.55-.37h0s0,0,0,0c-.54-.37-1.18-.85-1.16-1.24.01-.26.55-1.23.89-1.09.07.03.13.1.19.2.1.16.18.39.26.6.02.05.04.1.06.15.04.11.08.2.13.27.07.11.16.22.26.34.19.21.42.43.64.65.08.08.16.16.24.24.4.05.83.08,1.18.11.08,0,.15.01.21.02h0s.02,0,.02,0c.12,0,.22.02.29.02.02,0,.04,0,.06,0h0c.29.03.66.05,1.11.07.07,0,.14,0,.21.01.3.01.63.03.98.04.13,0,.27,0,.41.01h0c.19,0,.4.01.6.02h0c.22,0,.45.01.68.02.16,0,.32,0,.49.01.07,0,.14,0,.21,0,.48.01.98.02,1.48.04.07,0,.14,0,.21,0,.5,0,.99.02,1.48.03.23,0,.45,0,.67.01,2.93.05,5.45.08,5.52.08.18,0,.38.02.54.07.24.07.42.2.4.45Z"/>
    <path class="st5" d="M25.45,14.49c-.08,1.05-.2,2.06-.11,3.11.02.21.09.41-.16.48-.02,0-.05.01-.07.02-.28.06-.62-.01-.9-.02-1.97-.05-3.9-.33-5.82-.72-.06-.01-.11-.02-.17-.03-.22-.04-.43-.09-.65-.14-.23-.05-.46-.1-.7-.16-.24-.06-.48-.11-.72-.17-.07-.01-.14-.03-.2-.05-.01,0-.03,0-.04-.01h0c-.13-.03-.27-.06-.4-.09-.32-.08-.65-.15-.97-.23-.07-.02-.14-.03-.2-.05-.47-.11-.94-.23-1.41-.34-.05-.01-.11-.03-.16-.04-.44-.11-.88-.22-1.32-.33-.03,0-.07-.02-.1-.02-.06-.02-.13-.03-.21-.05-.35-.09-.78-.19-1.22-.3-.14-.04-.29-.07-.43-.11h0c-.2-.05-.4-.1-.58-.14-.31-.08-.6-.15-.82-.2h0l-.07-.26s.1-.08.15-.11c.13-.08.28-.12.43-.08-.1-.09-.23-.2-.35-.31-.06-.06-.13-.12-.19-.17-.03-.03-.06-.06-.09-.08,0,0-.02-.01-.02-.02-.02-.02-.04-.03-.05-.05-.02-.01-.03-.03-.05-.04-.02-.01-.03-.03-.05-.04-.01-.01-.03-.02-.05-.04l-.14-.5c.05.07.38.13.8.19.09.01.19.02.29.03.4.05.83.08,1.18.11.08,0,.15.01.21.02,0,0,.01,0,.02,0,.12,0,.22.02.29.02.02,0,.04,0,.06,0h0c.29.03.66.05,1.11.07.07,0,.14,0,.21.01.3.01.63.03.98.04.13,0,.27,0,.41.01h0c.19,0,.4.01.6.02h0c.22,0,.45.01.68.02.16,0,.32,0,.49.01.07,0,.14,0,.21,0,.48.01.98.02,1.48.04.07,0,.14,0,.21,0,.5,0,.99.02,1.48.03.23,0,.45,0,.67.01,2.93.05,5.45.08,5.52.08.18,0,.38.02.54.07.24.07.42.2.4.45Z"/>
    <path class="st5" d="M9.06,14.58s-.07.04-.12.05c-.05,0-.1,0-.15-.04-.04-.02-.09-.05-.14-.1,0,0,0,0-.01,0-.01-.01-.03-.02-.04-.03h0c-.1-.09-.23-.2-.35-.31-.06-.06-.13-.12-.19-.17-.03-.03-.06-.06-.09-.08,0,0-.02-.01-.02-.02-.02-.02-.04-.03-.05-.05-.02-.01-.03-.03-.05-.04-.02-.01-.03-.03-.05-.04-.01-.01-.03-.02-.05-.04-.14-.1-.34-.23-.55-.37,0,0,0,0,0,0-.54-.37-1.18-.85-1.16-1.24.01-.26.55-1.23.89-1.09.07.03.13.1.19.2.1.16.18.39.26.6.02.05.04.1.06.15.04.11.08.2.13.27.07.11.16.22.26.34.19.21.42.43.64.65.08.08.16.16.24.24.2.2.36.41.45.6.09.19.04.44-.08.54Z"/>
    <path class="st5" d="M9.04,14.85c-.01.08-.07.16-.14.25-.06.09-.13.18-.19.29-.12.24-.24.5-.38.77-.09.17-.18.35-.28.52-.17.31-.36.61-.55.86-.04.06-.09.1-.13.14-.3.25-.52-.03-.8-.35-.8-.92-.06-1.18.54-1.7,0,0,.02-.01.02-.02h0c.07-.06.14-.13.2-.19.17-.19.39-.55.66-.77.05-.04.1-.08.15-.11.13-.08.28-.12.43-.08h0s0,0,0,0c.04,0,.08.02.12.04.1.05.17.09.22.13.09.08.12.15.1.22Z"/>
    <polygon class="st10" points="12.08 10.89 10.45 11.4 9.13 10.26 10.77 9.75 12.08 10.89"/>
    <path class="st10" d="M11.76,3.74s-.09.08-.16.11c-.07.02-.13.02-.18,0-.05-.03-.09-.08-.12-.14-.02-.07-.02-.14,0-.19.03-.06.07-.1.14-.12.06-.02.12-.03.18-.01l-.05-.16c-.05,0-.12.01-.19.03-.11.04-.19.11-.24.2-.05.09-.05.2-.01.31.04.11.1.18.18.23.08.04.18.05.29,0,.08-.03.15-.06.19-.11l-.05-.15Z"/>
    <path class="st10" d="M12.14,3.38l-.27.09.04.11.27-.09-.04-.11Z"/>
    <path class="st10" d="M12.51,3.17l.45.35.16-.06-.25-.72-.15.05.14.4s.03.08.04.1h0s-.04-.03-.06-.05l-.43-.34-.17.06.25.72.15-.05-.14-.39c-.02-.05-.03-.09-.04-.11h0s.03.03.06.05Z"/>
    <path class="st2" d="M19.11,3.69l-.08.12.19.13-.37.54.15.1.37-.54.19.13.08-.12-.53-.36Z"/>
    <path class="st2" d="M19.56,4.44l-.07.1.25.17.07-.1-.25-.17Z"/>
    <path class="st2" d="M20.39,4.56l-.69.5.16.11.15-.11.23.16-.05.18.16.11.22-.82-.18-.12ZM20.28,5.07l-.17-.11.22-.18s.04-.03.05-.05h0s-.02.05-.03.07l-.08.27Z"/>
    <path class="st9" d="M18.26,5.14l-.04-.03-.21.08-1.41.53h0l-.89.34-.05.31-.13.74-.27,1.59,2.06,1.7,2.51-.94.38-2.19.08-.45-2.02-1.67ZM19.45,7.23s-.02.08-.08.09c-.03,0-.07,0-.1,0-.01,0-.03,0-.04,0-.07,0-.14-.03-.19.02-.07.08-.09.22-.14.32-.02.05-.05.08-.08.13-.04.06-.08.14-.12.2-.03.05-.07.1-.1.15-.04.07-.08.11-.12.19-.03.06-.06.12-.08.19-.04.14-.05.28-.09.41,0,0,0,.01-.01.02,0,.02,0,.08.02.09,0,0,.02,0,.03,0,0,0,.02.06.02.07,0,.02,0,.04-.03.05-.03,0-.05,0-.08-.01-.03,0-.06,0-.1-.02-.03-.01-.02-.03-.02-.05,0-.06,0-.13,0-.18,0,0,0-.02,0-.02,0-.02,0-.04,0-.06.02-.12.04-.24.05-.36,0-.05.01-.08.02-.13,0-.01,0-.03.01-.04,0,0,0,0,0,0-.01,0-.04,0-.05,0-.01.04-.04.07-.06.11-.04.09-.07.22-.09.32,0,.04,0,.07-.01.11-.01.04-.02.06-.02.1,0,.02-.03.09-.01.11,0,0,.02,0,.03.01.01.01.03.08.03.1,0,.02-.02.02-.04.02-.03,0-.08,0-.11-.02-.02,0-.05-.01-.06-.02,0-.02,0-.03,0-.04,0-.08-.04-.12-.03-.2.02-.12.04-.24.05-.37,0-.1,0-.2.03-.3-.05-.01-.1-.03-.16-.04-.1-.03-.21-.06-.3-.11-.02,0-.03-.03-.05-.03-.02,0-.08.09-.09.12-.04.05-.09.1-.13.13-.05.04-.12.07-.16.12-.03.04-.05.09-.06.13,0,.01-.02.07-.01.07,0,0,.03,0,.04.03,0,.02.01.07-.02.07,0,0-.06,0-.07,0-.02,0-.06-.02-.08-.03-.07-.04-.03-.07-.02-.13,0-.05.02-.1.03-.15,0-.02.01-.06.02-.08.01-.03.04-.04.07-.06.06-.05.12-.11.13-.19,0,0,0-.02,0-.02-.04.06-.1.11-.15.16-.03.03-.07.05-.1.07-.1.08-.15.19-.17.31.01,0,.04,0,.05.02,0,0,0,.07,0,.08,0,.02-.03,0-.05,0-.05,0-.11-.02-.15-.03-.03-.01-.03-.04-.03-.07.01-.1.05-.2.09-.3.01-.03.02-.05.03-.08.02-.04.06-.04.1-.06.09-.08.08-.22.1-.32,0-.04.02-.08.03-.11-.01,0,0,0-.01,0-.02.02-.06.04-.09.06-.01,0-.1.04-.1.04,0,0-.01,0-.02,0-.02,0-.07.01-.09.01-.07-.01-.12,0-.19-.01-.05,0-.11-.02-.16-.03,0,0-.02,0-.03,0-.01,0-.02.02-.03,0,.01-.02.02-.04.04-.06.09-.1.2-.08.32-.1.2-.05.29-.12.42-.27.04-.05.15-.15.2-.18.09-.06.26-.06.36-.04.22.04.44.16.67.16.07,0,.14-.04.21-.05.05,0,.11,0,.15-.03.03-.02.06-.06.09-.1.03-.04.07-.09.09-.13.01-.02.05-.08.05-.1,0-.01,0-.04,0-.06,0-.04,0-.04.03-.07.06-.03.12-.07.18-.1.03-.02.05-.02.08-.02.18,0,.35.05.45.2.03.04.03.06.03.11,0,.03.02.03.04.05,0,0,.02.02.03.03.02.02.08.06.09.08,0,.02,0,.06-.02.08,0,0,0,0,0,0-.01.03-.03.05-.04.08Z"/>
    <path class="st8" d="M16.41,1.7l-1.78.61-.35,1.84,1.12.96h0l.31.27,1.78-.61.09-.47.26-1.37-1.43-1.23ZM16.88,2.82s.04-.03.06-.04l.34.03-.14.31-1.51.85h0s-.05-.09-.05-.09h0s1.45-.91,1.45-.91l-1.49.84h0s-.05-.09-.05-.09h0c.47-.3.94-.6,1.41-.89ZM16.22,3.8s-.03-.05-.03-.05l.11-.06.15.27-.1.06c-.04-.07-.09-.14-.14-.22ZM16.28,4.05h0s-.04.03-.06.04c0,0-.03.02-.03.02,0,0,0,0,0,0l-.17-.27h0s.11-.07.11-.07l.16.27ZM15.29,2.31l.31.14c.14.25.28.5.42.75,0,.02.02.03.03.05,0,0,0,0,0,0l-.13.08-.49-.78.45.8-.12.08h0s-.5-.79-.5-.79l.02-.34ZM15.15,4.19s-.08.04-.12.07c-.06.14-.27.06-.22-.08.02-.05.08-.07.13-.07l.41-.26-.12-.19c.06-.03.13-.02.17.04l.21.36c.03.06.01.13-.05.17l-.12-.19c-.1.06-.2.12-.3.17ZM16.77,4.74c-.07.07-.19.03-.2-.07h0s0-.02,0-.03c0-.01-.03-.05-.04-.06l-.22-.36-.19.12c-.03-.06-.02-.13.04-.17.12-.06.24-.15.35-.21.06-.03.13-.01.17.05l-.2.12.25.43s.04.02.05.04c.03.04.03.1,0,.15Z"/>
    <path class="st1" d="M13.11,6.14l-.02.15h-.21s0-.02,0-.03c0-.01,0-.08.01-.08.05,0,.1-.03.14-.04.01,0,.08,0,.08,0Z"/>
    <path class="st1" d="M13.15,5.82l-.03.23s-.04,0-.04,0c-.06,0-.11.05-.17.05,0,0,0,0,0-.01,0-.02,0-.05.01-.06,0-.01.04-.04.05-.06.03-.05.06-.1.08-.16l.11.02Z"/>
    <path class="st1" d="M13.29,6.18l-.04.14-.1-.02.02-.14s.03,0,.04,0c.03,0,.06,0,.09.02Z"/>
    <path class="st1" d="M13.38,5.85l-.07.23s-.09-.02-.14-.03l.03-.23.17.02Z"/>
    <path class="st1" d="M13.64,6.39l-.03.07c-.1-.06-.21-.1-.32-.13l.05-.14s.04,0,.06.02c.03.01.05.04.07.06.05.04.11.09.17.12Z"/>
    <path class="st1" d="M13.69,6.25l-.02.06s-.09-.05-.1-.06c-.04-.03-.08-.08-.13-.11-.02-.02-.05-.02-.07-.04l.07-.24.13.02c-.01.06-.01.11,0,.17.02.08.06.14.11.2Z"/>
    <path class="st1" d="M13.73,5.62s-.02.04-.04.06c-.13.12-.4.14-.55.04-.05-.03-.09-.08-.09-.14.07.14.25.17.39.16.08,0,.17-.03.24-.08l.04-.04Z"/>
    <path class="st1" d="M13.73,5.24c0-.12-.09-.22-.2-.27-.13-.05-.29,0-.37.11-.06.08-.07.15-.07.25,0,.12.04.23.16.27.06.02.27.02.33,0,.15-.07.16-.21.15-.36ZM13.69,5.35c0,.16-.08.22-.23.22-.07,0-.17,0-.22-.03-.08-.05-.1-.12-.1-.21,0-.12.02-.25.17-.27.08,0,.16,0,.23,0,.01,0,.04,0,.05,0,.12.05.11.16.11.27Z"/>
    <path class="st1" d="M13.56,4.48l-1.98.7-.38,2.05.72.61.88.75,1.98-.7.13-.72.25-1.34-1.6-1.36ZM14.27,6.38s.05.08.05.09c0,.02-.03.04-.02.05,0,.02.05.04.05.05,0,0,0,.01,0,.02,0,.01.05.04.06.05.02.01.08.07.08.08,0,0,0,.01,0,.02,0,0,.01.01.02.02.02.03.05.09.03.13,0,0-.01,0-.02.01,0,0,0,.02-.02.03,0,0-.03,0-.04,0,0,0-.01.02-.04.02-.04,0,0-.06,0-.08,0-.03-.04-.07-.07-.07-.01.03.02.06,0,.09-.03.03-.06-.04-.08-.07-.01-.03-.04-.07-.05-.1,0-.01,0-.04-.01-.05,0-.01-.03-.02-.04-.04-.01,0-.02.02-.04.01-.02,0-.04-.04-.06-.06-.02-.02-.04-.05-.06-.07.04-.06.11-.12.18-.14.02,0,.05-.01.07,0ZM13.42,7.52s0,.06-.01.08c0,.01.01.03,0,.05,0,.04-.04.07-.04.09,0,.01.01.05,0,.08,0,.02-.02.04-.02.06-.01.06.01.1-.03.16-.08.09-.23.03-.21-.09,0-.04.03-.09.04-.13,0-.01,0-.03,0-.05,0,0,0-.02,0-.03,0-.02-.04-.06-.04-.1,0-.04.01-.07.01-.1,0,0,0-.03-.01-.04,0,0,0,0,0,0-.02-.11-.04-.23-.04-.34,0-.1.02-.22.02-.31,0,0,0-.01,0-.01-.04.06-.08.12-.13.18-.03.04-.07.07-.1.1-.01.02-.02.04-.03.06,0,.06.03.13,0,.19,0,0-.01.02-.01.03,0,0,.01.03.02.04.01.05,0,.05,0,.09,0,.01,0,.03,0,.04,0,0,0,.02,0,.03,0,.02-.02.04-.02.06,0,.01.02.04.02.06,0,.08-.06.1-.09.15-.04.06-.05.11-.13.14h-.04s-.05,0-.05,0l-.03-.03s-.03-.09,0-.14c.01-.03.05-.05.07-.08.01-.02.02-.05.03-.07,0,0-.01-.02-.02-.03,0,0-.01-.01-.01-.02-.02-.04,0-.06-.01-.1,0-.01-.01-.04-.01-.06,0-.03.02-.06.02-.08,0,0-.01-.02-.01-.03-.04-.09-.03-.22,0-.31,0-.02.01-.03.02-.06,0-.03,0-.08.03-.1.04-.02.12,0,.17,0,.01,0,.09.05.09.05-.02-.07-.07-.11-.14-.13-.02,0-.05,0-.08,0,0-.03,0-.05.03-.08.02-.03.06-.03.1-.02.06.01.11.04.16.07,0,0-.02-.06-.03-.06-.04-.06-.11-.06-.18-.06.03-.11.12-.18.19-.26-.02-.11,0-.23,0-.34,0,0,0,0,0,0-.01,0-.02,0-.03.01-.08.04-.16.09-.24.12-.05.02-.11.03-.16.04-.01,0-.03.02-.04.02-.01,0-.02-.02-.03-.02,0,0-.06.02-.07.02-.03.02-.06.04-.1.05-.02,0-.06,0-.08.02-.01,0,0,.02.01.02,0,.01.01.03,0,.04-.02,0-.02-.01-.04-.02,0,.02.02.03,0,.05-.02.01-.04-.02-.06-.03-.01,0-.03,0-.04-.02,0-.01,0-.07,0-.09,0-.03.04-.05.05-.08,0-.01.01-.02.02-.03.02-.02.06-.03.08-.04.03-.01.07-.05.1-.05.01,0,.03,0,.04,0,0,0,.03-.02.04-.02,0,0,0-.03,0-.04l.1-.07h.06c.02.07.08.19.16.19,0,0,.01,0,.02,0-.07-.07-.13-.16-.12-.26,0,0,.02-.03.03-.03.02,0,.06-.05.09-.04.01.09.05.19.14.22l-.05-.08c-.03-.07-.05-.14-.03-.22,0,0,.04-.04.05-.05.02,0,.03-.02.05-.03v.03s0,.04,0,.04c.01-.03.02-.05.04-.08.05-.07.16-.1.24-.11,0,0-.02-.04-.02-.05,0-.02-.01-.06-.02-.06,0,0-.03-.02-.04-.03-.02-.02-.02-.08-.02-.1,0-.04,0-.11.03-.14.02-.02.05-.01.05-.02,0,0,.03-.05.04-.06.17-.24.52-.22.66.05,0,0,0,.03.01.03,0,0,.02,0,.03.01.02,0,.03.03.03.05,0,.03,0,.14,0,.17,0,.03-.03.03-.05.04,0,.05-.03.09-.05.13.12.02.18.05.17.18,0,.02-.01.03,0,.05.03.04.07.07.1.12,0,0,.03.05.03.05,0,0,0,0-.01,0-.02,0-.05.02-.08.03-.06.03-.13.08-.16.14.1-.03.18-.11.28-.13l.03.08s-.03.06-.04.08c-.04.05-.1.08-.15.11.07,0,.14-.02.19-.07.01-.01.02-.03.03-.03.03.05.06.1.1.14-.07.01-.14.05-.2.11-.01.01-.02.03-.04.04l-.15-.14-.02.14c-.03.08-.09.12-.17.11-.02,0-.03,0-.05,0,0,.09-.02.19-.04.27,0,0-.05-.04-.06-.05-.06-.04-.11-.08-.19-.06-.02,0-.04.02-.06.04h.1c.1.03.24.13.17.25-.08-.06-.2-.17-.3-.09.02,0,.04.01.06.02.04.01.08.03.12.05.02.01.07.04.08.07,0,.06-.04.12-.08.16.03.06.06.12.03.19,0,0,0,0,0,.01,0,0,0,.01,0,.01,0,0,.02.05.02.07Z"/>
  </g>
</svg>