<?xml version="1.0" encoding="UTF-8"?>
<svg id="Layer_1" xmlns="http://www.w3.org/2000/svg" version="1.1" viewBox="0 0 48 48">
  <!-- Generator: Adobe Illustrator 29.6.1, SVG Export Plug-In . SVG Version: 2.1.1 Build 9)  -->
  <defs>
    <style>
      .st0 {
        fill: #757575;
      }

      .st1 {
        fill: #f6821f;
      }

      .st2, .st3 {
        fill: #ec1e35;
      }

      .st4 {
        fill: #fff;
      }

      .st5 {
        fill: #2196f3;
      }

      .st6 {
        fill: #39b54a;
      }

      .st6, .st3 {
        display: none;
      }

      .st7 {
        fill: #1f5bd6;
      }

      .st8 {
        fill: #f2cd0e;
      }

      .st9 {
        fill: #165fae;
      }

      .st10 {
        fill: #1eb04d;
      }
    </style>
  </defs>
  <polygon class="st6" points="-6.88 -220.52 -10.48 -199.02 -31.02 -191.4 -47.96 -205.29 -44.36 -226.8 -23.82 -234.42 -6.88 -220.52"/>
  <polygon class="st3" points="-2.53 -194.86 .77 -216.76 21.5 -224.83 38.94 -211.01 35.64 -189.11 14.9 -181.03 -2.53 -194.86"/>
  <g>
    <polygon class="st0" points="18.55 26.79 18 29.21 16.14 27.54 16.67 25.09 18.55 26.79"/>
    <polygon class="st0" points="21.18 26.08 20.64 28.55 18.26 29.3 18.77 26.84 21.18 26.08"/>
    <path class="st0" d="M25.17,26.26c-.36-.08-.72-.17-1.08-.25l-.34,1.56,2.41-.76h0s.07-.31.07-.31c-.35-.08-.7-.15-1.05-.24ZM16.97,24.28s-.08-.02-.13-.03l-.1.48,1.89,1.7.35-1.65c-.7-.17-1.37-.34-2.01-.5ZM19.22,24.84l-.36,1.64,2.41-.76.08-.36c-.73-.18-1.44-.35-2.13-.52ZM21.65,25.43l-.04.18.34-.11c-.1-.02-.2-.05-.3-.07ZM22.55,25.64l-1.02.32-.55,2.47,2.41-.76.39-1.74c-.41-.1-.82-.19-1.23-.29ZM15.97,24.03l.5.45.07-.31c-.18-.04-.37-.09-.57-.14ZM15.32,23.87s-.09-.02-.13-.03c-.26-.06-.52-.13-.78-.19l-.41,1.95,1.89,1.7.52-2.45-1.08-.97ZM13.66,23.47l-.04.09c-.21.43-.41.79-.63,1.14l.73.65.38-1.78c-.15-.04-.29-.07-.43-.11ZM15.32,23.87s-.09-.02-.13-.03c-.26-.06-.52-.13-.78-.19l-.41,1.95,1.89,1.7.52-2.45-1.08-.97ZM15.97,24.03l.5.45.07-.31c-.18-.04-.37-.09-.57-.14ZM16.97,24.28s-.08-.02-.13-.03l-.1.48,1.89,1.7.35-1.65c-.7-.17-1.37-.34-2.01-.5ZM19.22,24.84l-.36,1.64,2.41-.76.08-.36c-.73-.18-1.44-.35-2.13-.52ZM21.65,25.43l-.04.18.34-.11c-.1-.02-.2-.05-.3-.07ZM22.55,25.64l-1.02.32-.55,2.47,2.41-.76.39-1.74c-.41-.1-.82-.19-1.23-.29ZM39.41,30.42c-.04-.17-.09-.35-.17-.54-.26-.65-.72-1.38-1.17-2.09-.03,0-.05.02-.08.03-.45.14-.9.09-1.31.06-.13-.01-.26-.02-.37-.03-1.75-.05-3.54-.21-5.47-.49-1.04-.15-2.11-.34-3.25-.57-.05-.01-.1-.02-.15-.03-.09-.02-.18-.04-.27-.05l-.02.08-.27.69-.6.19-1.89.6-5.18,1.64-1.29.41-1.04-.94-3.99-3.59-.4-.36c-.1.14-.21.29-.33.45-.07.09-.14.18-.21.27-.25.32-.55.67-.82.91.38,1.74,3.37,6.3.12,13.97,1.82-.17,6.65-.07,13.12,4.24.43-1.14.78-2.54,2.03-3,1.2-.45,3.31.03,4.62.12,1.85.11,3.22-.28,3.41-2.38.07-.78-.26-1.92.37-2.49.45-.42,1.08-.39,1.05-1.19-.01-.34-.39-.75-.11-1.04.31-.33.85-.24,1-.92.13-.57-.84-1.76.16-2.23.92-.43,2.88.02,2.52-1.71ZM25.17,26.26c-.36-.08-.72-.17-1.08-.25l-.34,1.56,2.41-.76h0s.07-.31.07-.31c-.35-.08-.7-.15-1.05-.24ZM23.18,17.52l-2.46.77,1.97,1.71h0l2.46-.77-1.97-1.71ZM23.71,20.02c.44.01.89.02,1.37.03l.11-.5-1.49.47ZM25.54,19.44l-.14.62c.7.01,1.44.03,2.23.04l.32-1.43-2.41.76ZM37.26,26.43c-.09-.16-.16-.32-.23-.47-.69-1.6-.03-1.77.32-3.18.14-.56.22-1.14.25-1.73-.25-.07-.55-.09-.82-.1-.11,0-3.89-.04-8.3-.12-.33,0-.67-.01-1.01-.02-.74-.02-1.48-.03-2.23-.04-.11,0-.22,0-.32,0-.75-.02-1.5-.03-2.23-.05-.11,0-.21,0-.32,0-.25,0-.49-.01-.73-.02-.35,0-.69-.02-1.02-.03h0c-.31,0-.61-.02-.9-.03h0c-.21,0-.41-.01-.62-.02-.52-.02-1.02-.04-1.47-.06-.11,0-.22-.01-.32-.02-.67-.03-1.23-.07-1.66-.11h0s-.06,0-.09,0c-.11-.01-.26-.02-.44-.04l-.02-.02v.02c-.1,0-.21-.02-.32-.03-.52-.04-1.17-.1-1.77-.17-.12-.12-.24-.24-.36-.36-.33-.32-.68-.65-.97-.97-.15-.17-.29-.34-.39-.5-.06-.1-.13-.25-.19-.41-.16.69-.28,1.39-.34,2.09,0,0,0,.02,0,.03v-.02c.34.22.64.41.84.56.03.02.05.04.07.05.02.02.04.03.07.05.02.02.05.04.07.06.03.02.05.05.08.07.01,0,.02.02.04.03.05.04.09.08.14.12.09.08.18.17.28.25.18.16.36.33.52.46-.23-.05-.44,0-.65.12-.08.05-.16.1-.23.16-.4.34-.74.87-.99,1.16-.09.1-.19.2-.3.29h0c0,.05,0,.1,0,.15.06.99.18,1.98.34,2.96.06-.05.13-.12.19-.21.29-.38.57-.82.83-1.29.14-.26.28-.52.42-.78.2-.4.39-.79.56-1.15.08-.17.19-.31.28-.44.28.07.57.14.88.22h0c.21.05.43.11.65.16.66.16,1.3.32,1.83.45.11.03.21.05.31.08.05.01.1.02.15.04.66.16,1.32.33,1.99.49.08.02.16.04.24.06.71.17,1.42.35,2.13.52.1.02.2.05.31.07.48.12.97.23,1.46.35.2.05.4.1.61.14h0s.04.01.06.02c.1.02.2.05.31.07.36.09.72.17,1.09.25.35.08.7.16,1.05.23.32.07.65.14.97.21.08.02.17.03.25.05,2.89.59,5.78,1,8.75,1.08.41,0,.92.12,1.35.03h0c-.15-.25-.3-.5-.43-.74ZM20.47,18.36l-2.46.77.85.74h0c.93.04,2.07.07,3.48.11l-1.87-1.62ZM17.86,19.47l-.08.36c.16,0,.32.01.5.02l-.42-.38ZM15.7,17.52l-.45,2.13c.16.01.29.02.38.03.39.04.97.08,1.83.12l.12-.59-1.89-1.7ZM13.55,15.58l-.52,2.45,1.76,1.59c.05,0,.1,0,.15.01l.5-2.35-1.89-1.7ZM12.95,18.39l-.12.59s.08.07.12.11c.13.13.27.26.4.39.31.03.62.06.92.09l-1.31-1.18ZM32.86,11.81c-.54-.32-1.12-.56-1.72-.73l-.64,3.72-3.53,1.33,1.12.97,1.03.89-.3,1.38h0s-.17.76-.17.76c.14,0,.29,0,.43,0,.02,0,.04,0,.06,0,1.99.03,4.26.07,6.85.1.66,0,.8.01.84.01.15,0,.37.02.6.05.07.01.13.02.19.03-.12-3.3-1.84-6.8-4.74-8.52ZM29.26,10.71s-.04.08-.07.12c-.04.06-.03.12-.12.13-.05,0-.1,0-.15,0-.02,0-.04,0-.07,0-.1,0-.21-.05-.29.04-.1.12-.13.33-.21.48-.04.07-.08.12-.12.19-.06.1-.12.21-.18.3-.05.07-.1.15-.15.22-.07.1-.12.17-.18.29-.04.09-.08.19-.11.28-.06.21-.08.41-.14.62,0,.01-.01.02-.02.03,0,.03,0,.12.03.13.01,0,.03,0,.05.01.01,0,.03.09.03.11,0,.03,0,.06-.04.07-.04,0-.08-.01-.12-.02-.05,0-.09,0-.14-.03-.05-.02-.03-.04-.03-.08,0-.09,0-.19-.01-.28,0-.01-.01-.02-.01-.04,0-.03,0-.06.01-.09.03-.18.06-.36.08-.54,0-.07.02-.12.03-.19,0-.02,0-.04.02-.06,0,0,0-.01-.01-.02-.02,0-.05.01-.08,0-.02.06-.06.11-.08.16-.06.14-.11.33-.13.48-.01.05,0,.11-.02.16-.02.06-.03.09-.04.15,0,.03-.05.14-.02.17,0,.01.03,0,.04.02.02.02.05.12.04.15,0,.02-.03.03-.05.03-.04,0-.12-.02-.16-.02-.03,0-.08-.02-.09-.04-.01-.02,0-.04,0-.06,0-.11-.06-.19-.04-.31.03-.19.05-.37.07-.55.01-.15,0-.3.04-.44-.08-.02-.16-.04-.23-.06-.15-.05-.31-.08-.45-.16-.03-.02-.05-.04-.08-.05-.03,0-.11.14-.14.18-.06.07-.13.14-.2.2-.08.06-.18.1-.24.18-.04.05-.07.13-.1.19,0,.02-.03.1-.02.11.01.01.04,0,.06.04.01.03.02.1-.03.11,0,0-.09,0-.1,0-.03,0-.09-.04-.12-.05-.1-.05-.05-.11-.03-.2.02-.07.03-.15.04-.23,0-.03.02-.08.03-.11.02-.04.06-.06.1-.09.09-.08.17-.16.19-.29,0,0,0-.03,0-.03-.06.09-.14.17-.23.24-.05.04-.11.07-.15.11-.15.12-.22.28-.25.47.02,0,.06.01.07.03,0,.01,0,.11,0,.12-.01.02-.05,0-.07,0-.07,0-.17-.03-.23-.05-.05-.02-.05-.06-.05-.11.02-.16.08-.31.13-.45.02-.04.02-.08.05-.12.04-.06.1-.05.14-.1.13-.12.11-.33.14-.48.01-.06.03-.11.05-.17-.02-.01-.01,0-.02,0-.04.03-.1.06-.14.08-.02,0-.15.06-.16.06-.01,0-.02-.01-.03-.01-.03,0-.1.02-.13.02-.1-.02-.18,0-.28-.02-.08,0-.16-.03-.24-.04,0,0-.03,0-.04,0-.02,0-.04.03-.05.01.02-.03.03-.06.06-.09.13-.16.31-.12.48-.16.3-.07.44-.18.63-.41.06-.08.22-.23.31-.28.14-.08.39-.09.55-.07.33.05.66.24,1.01.24.1,0,.2-.06.31-.07.07-.01.17,0,.23-.04.05-.03.1-.09.14-.15-.29-.02-.57-.03-.85-.04-1.18-.05-2.37-.02-3.55.09l-.41,2.4,3.09,2.56,3.77-1.42.56-3.29c-.35-.07-.7-.12-1.06-.16ZM25.89,16.67l-2.46.77,1.97,1.71,2.46-.77-1.97-1.71ZM23.73,14.79l-2.46.77,1.97,1.71,2.46-.77-1.97-1.71ZM21.56,12.92l-2.46.77,1.97,1.71,2.46-.77-1.97-1.71ZM21.02,15.64l-2.46.77,1.97,1.71,2.46-.77-1.97-1.71ZM20.1,11.14s-.01.02-.01.02c0,0,.03.07.03.1,0,.05-.01.08-.02.12,0,.02.02.04.01.08,0,.07-.06.1-.07.13,0,.02.02.08.01.12,0,.04-.03.06-.03.09-.02.09.02.15-.05.23-.12.13-.35.05-.32-.14,0-.07.05-.13.06-.19,0-.02,0-.05,0-.07,0-.01,0-.03,0-.04,0-.03-.06-.09-.07-.14-.01-.06.02-.1.02-.14,0-.01-.01-.04-.02-.06-.15.03-.29.07-.44.11,0,.01,0,.03,0,.04,0,.03-.03.06-.03.09,0,.02.02.06.03.09.01.11-.09.15-.14.23-.07.09-.07.16-.19.21h-.06s-.08,0-.08,0l-.05-.05c-.04-.06-.04-.14,0-.2.02-.04.07-.08.1-.12.02-.03.04-.08.05-.11,0,0-.02-.03-.04-.05-.31.08-.62.18-.93.27l1.33,1.13,2.97-1.05.2-1.07c-.76.1-1.52.23-2.27.4ZM18.85,13.77l-2.46.77,1.97,1.71,2.46-.77-1.97-1.71ZM18.31,16.49l-2.46.77,1.97,1.71,2.46-.77-1.97-1.71ZM16.14,14.61l-2.46.77,1.97,1.71,2.46-.77-1.97-1.71ZM15.92,12.43c-.58.23-1.15.48-1.72.76l.96.88,1.56-.48.35-1.58c-.39.13-.77.28-1.15.43ZM13.66,23.47l-.04.09c-.21.43-.41.79-.63,1.14l.73.65.38-1.78c-.15-.04-.29-.07-.43-.11ZM15.32,23.87s-.09-.02-.13-.03c-.26-.06-.52-.13-.78-.19l-.41,1.95,1.89,1.7.52-2.45-1.08-.97ZM15.97,24.03l.5.45.07-.31c-.18-.04-.37-.09-.57-.14ZM16.97,24.28s-.08-.02-.13-.03l-.1.48,1.89,1.7.35-1.65c-.7-.17-1.37-.34-2.01-.5ZM19.22,24.84l-.36,1.64,2.41-.76.08-.36c-.73-.18-1.44-.35-2.13-.52ZM21.65,25.43l-.04.18.34-.11c-.1-.02-.2-.05-.3-.07ZM22.55,25.64l-1.02.32-.55,2.47,2.41-.76.39-1.74c-.41-.1-.82-.19-1.23-.29ZM25.17,26.26c-.36-.08-.72-.17-1.08-.25l-.34,1.56,2.41-.76h0s.07-.31.07-.31c-.35-.08-.7-.15-1.05-.24ZM13.66,23.47l-.04.09c-.21.43-.41.79-.63,1.14l.73.65.38-1.78c-.15-.04-.29-.07-.43-.11Z"/>
    <path class="st5" d="M24,1.4C11.54,1.4,1.4,11.54,1.4,24s10.14,22.6,22.6,22.6,22.6-10.14,22.6-22.6S36.46,1.4,24,1.4ZM24,45.98c-12.12,0-21.98-9.86-21.98-21.98S11.88,2.02,24,2.02s21.98,9.86,21.98,21.98-9.86,21.98-21.98,21.98Z"/>
    <path class="st4" d="M13.9,28.75"/>
    <polygon class="st4" points="18.55 26.79 18 29.21 16.14 27.54 16.67 25.09 18.55 26.79"/>
    <polygon class="st4" points="21.18 26.08 20.64 28.55 18.26 29.3 18.77 26.84 21.18 26.08"/>
    <path class="st4" d="M14.09,23.57l-.38,1.78-.73-.65c.22-.35.42-.71.63-1.14l.04-.09c.14.03.29.07.43.11Z"/>
    <path class="st4" d="M16.39,24.84l-.52,2.45-1.89-1.7.41-1.95c.26.06.53.13.78.19.04.01.09.02.13.03l1.08.97Z"/>
    <path class="st4" d="M16.54,24.17l-.07.31-.5-.45c.2.05.39.1.57.14Z"/>
    <path class="st4" d="M18.98,24.78l-.35,1.65-1.89-1.7.1-.48s.09.02.13.03c.64.16,1.31.32,2.01.5Z"/>
    <path class="st4" d="M21.34,25.35l-.08.36-2.41.76.36-1.64c.69.17,1.4.34,2.13.52Z"/>
    <path class="st4" d="M21.95,25.5l-.34.11.04-.18c.1.02.2.05.3.07Z"/>
    <path class="st4" d="M23.78,25.93l-.39,1.74-2.41.76.55-2.47,1.02-.32c.41.1.82.19,1.23.29Z"/>
    <path class="st4" d="M26.22,26.49l-.07.31h0s-2.41.76-2.41.76l.34-1.56c.36.08.72.17,1.08.25.35.08.7.16,1.05.24Z"/>
    <polygon class="st4" points="18.12 16.32 15.65 17.09 13.68 15.38 16.14 14.61 18.12 16.32"/>
    <polygon class="st4" points="20.28 18.19 17.82 18.96 15.85 17.26 18.31 16.49 20.28 18.19"/>
    <polygon class="st4" points="20.82 15.47 18.36 16.24 16.39 14.54 18.85 13.77 20.82 15.47"/>
    <polygon class="st4" points="22.99 17.35 20.53 18.12 18.56 16.41 21.02 15.64 22.99 17.35"/>
    <polygon class="st4" points="23.53 14.63 21.07 15.39 19.1 13.69 21.56 12.92 23.53 14.63"/>
    <polygon class="st4" points="25.7 16.5 23.24 17.27 21.27 15.56 23.73 14.79 25.7 16.5"/>
    <polygon class="st4" points="27.87 18.38 25.4 19.15 23.43 17.44 25.89 16.67 27.87 18.38"/>
    <polygon class="st4" points="25.16 19.22 22.7 19.99 22.7 19.99 20.72 18.28 23.18 17.52 25.16 19.22"/>
    <path class="st4" d="M25.2,19.55l-.11.5c-.48-.01-.94-.02-1.37-.03l1.49-.47Z"/>
    <path class="st4" d="M27.95,18.67l-.32,1.43c-.79-.02-1.53-.03-2.23-.04l.14-.62,2.41-.76Z"/>
    <path class="st4" d="M14.26,19.57c-.3-.03-.61-.06-.92-.09-.13-.13-.27-.26-.4-.39-.04-.04-.08-.07-.12-.11l.12-.59,1.31,1.18Z"/>
    <path class="st4" d="M15.43,17.28l-.5,2.35s-.1,0-.15-.01l-1.76-1.59.52-2.45,1.89,1.7Z"/>
    <path class="st4" d="M17.59,19.22l-.12.59c-.86-.04-1.45-.08-1.83-.12-.09,0-.22-.02-.38-.03l.45-2.13,1.89,1.7Z"/>
    <path class="st4" d="M18.28,19.85c-.17,0-.34-.01-.5-.02l.08-.36.42.38Z"/>
    <path class="st4" d="M22.34,19.98c-1.4-.04-2.55-.07-3.48-.11h0l-.85-.74,2.46-.77,1.87,1.62Z"/>
    <path class="st4" d="M11.02,17.68l-.6-.55.21-.34c.15.24.27.58.38.89Z"/>
    <path class="st4" d="M28.49,20.82l-.28,1.24-.87,3.94c-.32-.07-.65-.14-.97-.21-.35-.07-.7-.15-1.05-.23-.36-.08-.72-.17-1.09-.25-.1-.02-.2-.05-.31-.07-.02,0-.04-.01-.06-.02h0c-.2-.05-.4-.09-.61-.14-.48-.11-.97-.23-1.46-.35-.1-.02-.2-.05-.31-.07-.71-.17-1.42-.34-2.13-.52-.08-.02-.16-.04-.24-.06-.66-.16-1.32-.33-1.99-.49-.05-.01-.1-.02-.15-.04-.1-.02-.2-.05-.31-.08-.52-.13-1.17-.29-1.83-.45-.22-.05-.43-.11-.65-.16h0c-.3-.07-.6-.15-.88-.22-.09.13-.2.27-.28.44-.17.36-.36.75-.56,1.15-.13.26-.27.52-.42.78l-1.24-1.12-.12-.35-.04-.12s.02-.02.03-.03h0c.1-.09.2-.19.3-.29.26-.29.59-.82.99-1.16.07-.06.15-.12.23-.16.2-.12.42-.18.65-.12-.16-.13-.34-.29-.52-.46-.09-.09-.19-.17-.28-.25-.05-.04-.09-.08-.14-.12-.01-.01-.02-.02-.04-.03-.03-.02-.05-.05-.08-.07-.03-.02-.05-.04-.07-.06-.02-.02-.05-.04-.07-.05-.02-.02-.05-.03-.07-.05-.2-.15-.5-.34-.83-.56l.91-1.19c.28.32.63.65.97.97.12.12.25.24.36.36.6.07,1.25.13,1.77.17.11,0,.22.02.32.03v-.02s.03.02.03.02c.18.01.33.03.44.04.03,0,.06,0,.09,0h0c.43.04.99.07,1.66.11.1,0,.21,0,.32.02.45.02.94.04,1.47.06.2,0,.4.02.62.02h0c.29.01.59.02.9.03h0c.33.01.67.02,1.02.03.24,0,.49.01.73.02.11,0,.21,0,.32,0,.73.02,1.47.04,2.23.05.11,0,.21,0,.32,0,.74.01,1.49.03,2.23.04.34,0,.68.01,1.01.02Z"/>
    <polygon class="st4" points="16.64 7.83 16.25 9.86 14.28 10.53 14.13 10.4 16 9.82 16.4 7.62 16.64 7.83"/>
    <polygon class="st4" points="17.07 11.99 17.07 12 16.72 13.57 15.16 14.06 14.2 13.18 14.2 13.18 13.95 12.96 14.31 11.37 15.87 10.88 17.07 11.99"/>
    <path class="st4" d="M19.65,9.19l-.03.22-.32-.02s0-.01,0-.02c0-.02.01-.12.02-.12.08.01.15-.05.22-.06.02,0,.11,0,.12,0Z"/>
    <path class="st4" d="M19.72,8.71l-.05.35s-.05,0-.07,0c-.1,0-.17.07-.26.08,0,0,0-.01,0-.02,0-.02.01-.07.02-.09.01-.02.06-.07.08-.09.05-.07.09-.16.12-.24l.16.02Z"/>
    <path class="st4" d="M19.93,9.24l-.06.22-.16-.03.02-.21s.04,0,.06,0c.05,0,.09.01.14.02Z"/>
    <path class="st4" d="M20.07,8.76l-.1.35c-.07-.02-.14-.02-.21-.04l.05-.34.25.04Z"/>
    <path class="st4" d="M20.46,9.56l-.04.11c-.15-.09-.31-.15-.48-.19l.07-.21s.06.01.09.03c.04.02.07.06.1.09.08.07.16.13.26.18Z"/>
    <path class="st4" d="M20.53,9.35l-.03.09s-.13-.08-.15-.09c-.06-.05-.13-.12-.19-.17-.03-.02-.07-.04-.11-.05l.11-.35.2.03c-.02.08-.02.17,0,.25.03.11.09.21.17.3Z"/>
    <path class="st4" d="M20.59,8.41s-.03.06-.06.08c-.19.19-.6.21-.82.06-.07-.05-.13-.11-.13-.21.11.2.38.25.59.24.13,0,.25-.05.36-.12l.06-.06Z"/>
    <path class="st4" d="M20.59,7.84c-.01-.18-.13-.33-.3-.4-.2-.08-.43,0-.56.16-.1.12-.11.23-.1.38,0,.18.06.34.24.41.09.03.41.03.5,0,.23-.1.24-.31.23-.54ZM20.53,8c-.01.24-.12.33-.35.33-.1,0-.25,0-.34-.04-.13-.07-.15-.19-.15-.32,0-.19.03-.38.25-.4.11,0,.24,0,.35,0,.02,0,.06,0,.07.01.18.07.17.25.16.41Z"/>
    <path class="st4" d="M20.34,6.69l-2.97,1.05-.57,3.09,1.08.91,1.33,1.13,2.97-1.05.2-1.07.37-2.01-2.41-2.04ZM21.4,9.55s.07.12.07.13c0,.03-.05.05-.03.08.01.02.07.06.08.07,0,0,0,.02,0,.03,0,.02.07.06.09.08.02.02.12.1.12.12,0,.01,0,.02,0,.03,0,0,.02.02.02.03.03.05.08.13.04.19,0,0-.02,0-.03.02,0,.01-.01.04-.02.05-.01.01-.05,0-.06,0-.01,0-.02.03-.06.02-.06-.01,0-.09,0-.11.01-.05-.06-.11-.1-.11-.02.04.03.09,0,.13-.05.04-.1-.07-.12-.1-.02-.04-.06-.11-.07-.15,0-.02,0-.06-.02-.07-.01-.02-.05-.03-.05-.06-.02,0-.04.03-.06.02-.02-.01-.07-.06-.09-.09-.03-.03-.06-.07-.09-.11.06-.09.16-.19.27-.21.04,0,.08-.02.11.01ZM20.12,11.26s-.01.08-.02.12c0,.02.02.04.01.08,0,.07-.06.1-.07.13,0,.02.02.08.01.12,0,.04-.03.06-.03.09-.02.09.02.15-.05.23-.12.13-.35.05-.32-.14,0-.07.05-.13.06-.19,0-.02,0-.05,0-.07,0-.01,0-.03,0-.04,0-.03-.06-.09-.07-.14-.01-.06.02-.1.02-.14,0-.01-.01-.04-.02-.06,0,0,0,0,0-.01-.04-.16-.06-.35-.06-.51,0-.15.03-.33.02-.47,0,0,0-.02,0-.02-.06.09-.12.19-.19.27-.05.06-.11.1-.15.16-.02.03-.03.06-.05.09,0,.09.04.2,0,.29,0,.01-.02.03-.02.04,0,0,.02.05.02.06.02.07,0,.08-.02.14,0,.02,0,.04.01.07,0,.01,0,.03,0,.04,0,.03-.03.06-.03.09,0,.02.02.06.03.09.01.11-.09.15-.14.23-.07.09-.07.16-.19.21h-.06s-.08,0-.08,0l-.05-.05c-.04-.06-.04-.14,0-.2.02-.04.07-.08.1-.12.02-.03.04-.08.05-.11,0,0-.02-.03-.04-.05,0-.01-.02-.02-.02-.03-.03-.06-.02-.09-.02-.15,0-.02-.02-.05-.02-.09,0-.05.03-.09.03-.12,0-.01-.02-.03-.02-.05-.05-.14-.04-.33,0-.47.01-.03.02-.05.02-.09,0-.05-.01-.12.05-.15.06-.03.18-.01.25.02.02,0,.13.08.14.08-.03-.11-.1-.17-.21-.19-.04,0-.08,0-.12,0,.01-.05.01-.08.04-.12.03-.04.09-.05.14-.04.09.02.17.05.25.1,0,0-.04-.09-.04-.09-.06-.09-.16-.1-.27-.08.05-.16.18-.26.28-.39-.03-.17,0-.34.01-.51,0-.01,0,0-.01,0-.02,0-.04.02-.05.02-.12.06-.24.13-.36.18-.08.03-.17.04-.24.07-.02,0-.05.03-.06.03-.02,0-.03-.03-.04-.03-.01,0-.09.02-.1.03-.05.02-.09.06-.15.08-.03.01-.09.01-.12.03-.02,0,.01.03.02.03.02.02.02.05,0,.06-.03.01-.03-.02-.06-.02.01.03.03.05,0,.07-.03.02-.06-.03-.09-.04-.02,0-.05,0-.06-.03,0-.02,0-.11,0-.13,0-.05.05-.08.08-.12.01-.02.02-.03.03-.05.03-.03.08-.04.13-.06.04-.02.1-.08.14-.08.02,0,.04,0,.06,0,0,0,.05-.02.05-.03.01-.01,0-.05,0-.07l.15-.11h.09c.03.11.12.28.24.29.01,0,.02,0,.03,0-.1-.1-.2-.24-.18-.4,0,0,.04-.05.04-.05.03,0,.09-.07.14-.06.02.14.08.28.22.34l-.07-.12c-.04-.1-.08-.22-.05-.33,0,0,.06-.07.08-.08.02-.01.05-.03.08-.04v.05s-.01.06-.01.06c.02-.04.03-.08.06-.12.08-.11.24-.15.36-.17,0,0-.03-.06-.03-.07,0-.02-.02-.08-.02-.1,0-.01-.05-.03-.06-.04-.02-.03-.03-.12-.02-.16,0-.06.01-.16.05-.2.02-.03.07-.02.08-.03.01-.01.04-.07.05-.09.25-.36.79-.33.98.07,0,.01,0,.04.02.05.01.01.03.01.05.02.02.01.04.04.04.07,0,.04,0,.22,0,.25-.01.04-.04.05-.08.06-.02.07-.04.14-.07.2.18.02.27.08.26.27,0,.03-.02.05,0,.08.05.06.11.11.15.17,0,0,.04.07.04.08,0,0-.01,0-.02.01-.04.01-.08.03-.12.04-.1.04-.19.12-.24.22.14-.05.26-.17.42-.19l.05.12s-.04.1-.06.12c-.06.08-.15.12-.23.17.1,0,.22-.03.29-.11.02-.02.03-.04.05-.05.04.07.09.14.15.21-.11.02-.21.08-.29.16-.02.02-.04.05-.06.07l-.23-.22-.03.21c-.04.12-.13.17-.26.16-.03,0-.05-.01-.07-.01-.01.14-.02.28-.07.41-.01,0-.08-.07-.09-.07-.08-.06-.17-.11-.28-.08-.04,0-.07.03-.1.06l.15.02c.16.03.36.18.25.35-.12-.1-.3-.25-.45-.14.03.01.06.02.09.03.06.02.13.05.18.08.04.02.11.06.12.11.02.09-.06.18-.12.25.04.09.09.18.04.29,0,0,0,.01-.01.02,0,0-.01.02-.01.02,0,0,.03.07.03.1Z"/>
    <path class="st4" d="M26.36,6.42l-.14.71-2.68.92-.46-.4,1.78-.67h0c.02.15.2.21.29.11.06-.07.06-.16.01-.22l1.19-.44Z"/>
    <path class="st4" d="M27.39,7.69l-.05-.05-.31.12-2.11.79h0l-1.34.5-.08.46-.19,1.11-.41,2.4,3.09,2.56,3.77-1.42.56-3.29.12-.68-3.04-2.51ZM29.19,10.83c-.04.06-.03.12-.12.13-.05,0-.1,0-.15,0-.02,0-.04,0-.07,0-.1,0-.21-.05-.29.04-.1.12-.13.33-.21.48-.04.07-.08.12-.12.19-.06.1-.12.21-.18.3-.05.07-.1.15-.15.22-.07.1-.12.17-.18.29-.04.09-.08.19-.11.28-.06.21-.08.41-.14.62,0,.01-.01.02-.02.03,0,.03,0,.12.03.13.01,0,.03,0,.05.01.01,0,.03.09.03.11,0,.03,0,.06-.04.07-.04,0-.08-.01-.12-.02-.05,0-.09,0-.14-.03-.05-.02-.03-.04-.03-.08,0-.09,0-.19-.01-.28,0-.01-.01-.02-.01-.04,0-.03,0-.06.01-.09.03-.18.06-.36.08-.54,0-.07.02-.12.03-.19,0-.02,0-.04.02-.06,0,0,0-.01-.01-.02-.02,0-.05.01-.08,0-.02.06-.06.11-.08.16-.06.14-.11.33-.13.48-.01.05,0,.11-.02.16-.02.06-.03.09-.04.15,0,.03-.05.14-.02.17,0,.01.03,0,.04.02.02.02.05.12.04.15,0,.02-.03.03-.05.03-.04,0-.12-.02-.16-.02-.03,0-.08-.02-.09-.04-.01-.02,0-.04,0-.06,0-.11-.06-.19-.04-.31.03-.19.05-.37.07-.55.01-.15,0-.3.04-.44-.08-.02-.16-.04-.23-.06-.15-.05-.31-.08-.45-.16-.03-.02-.05-.04-.08-.05-.03,0-.11.14-.14.18-.06.07-.13.14-.2.2-.08.06-.18.1-.24.18-.04.05-.07.13-.1.19,0,.02-.03.1-.02.11.01.01.04,0,.06.04.01.03.02.1-.03.11,0,0-.09,0-.1,0-.03,0-.09-.04-.12-.05-.1-.05-.05-.11-.03-.2.02-.07.03-.15.04-.23,0-.03.02-.08.03-.11.02-.04.06-.06.1-.09.09-.08.17-.16.19-.29,0,0,0-.03,0-.03-.06.09-.14.17-.23.24-.05.04-.11.07-.15.11-.15.12-.22.28-.25.47.02,0,.06.01.07.03,0,.01,0,.11,0,.12-.01.02-.05,0-.07,0-.07,0-.17-.03-.23-.05-.05-.02-.05-.06-.05-.11.02-.16.08-.31.13-.45.02-.04.02-.08.05-.12.04-.06.1-.05.14-.1.13-.12.11-.33.14-.48.01-.06.03-.11.05-.17-.02-.01-.01,0-.02,0-.04.03-.1.06-.14.08-.02,0-.15.06-.16.06-.01,0-.02-.01-.03-.01-.03,0-.1.02-.13.02-.1-.02-.18,0-.28-.02-.08,0-.16-.03-.24-.04,0,0-.03,0-.04,0-.02,0-.04.03-.05.01.02-.03.03-.06.06-.09.13-.16.31-.12.48-.16.3-.07.44-.18.63-.41.06-.08.22-.23.31-.28.14-.08.39-.09.55-.07.33.05.66.24,1.01.24.1,0,.2-.06.31-.07.07-.01.17,0,.23-.04.05-.03.1-.09.14-.15.05-.07.1-.14.13-.19.02-.03.07-.12.07-.15,0-.02-.01-.06-.01-.09,0-.05,0-.07.04-.1.09-.04.18-.11.26-.15.05-.02.07-.03.13-.02.27,0,.52.08.68.3.05.06.05.09.05.17,0,.05.03.04.06.07.02.01.03.03.04.05.03.02.12.1.13.12.01.03-.01.08-.03.12,0,0,0,0,0,0-.02.04-.04.08-.07.12Z"/>
    <polygon class="st10" points="17.07 11.99 17.07 12 16.72 13.57 15.16 14.06 14.2 13.18 14.2 13.18 13.95 12.96 14.31 11.37 15.87 10.88 17.07 11.99"/>
    <path class="st5" d="M13.95,8.83l-.05.19c-.06,0-.07-.03-.1-.08-.08-.14-.12-.31-.13-.47,0-.03,0-.07,0-.11,0-.02.04-.04.06-.05.02-.01.02-.04.05-.01.02.02.04.05.06.07,0,0,.03.03.03.03l.09.42Z"/>
    <path class="st5" d="M13.78,8.26s.01-.07.02-.09c.01-.07.02-.15.03-.22.01-.06.06-.12.11-.17.02-.03.05-.05.08-.08.05,0,.11,0,.17,0l.15.15-.14.34c-.09.06-.18.12-.28.18-.01,0-.02.02-.03.02-.01,0-.1-.11-.1-.12Z"/>
    <path class="st5" d="M14.17,7.66h-.11s0-.02.02-.02c.07-.06.22-.13.31-.15.01,0,.03,0,.05,0l-.27.19Z"/>
    <path class="st5" d="M14.51,9.37s-.1.05-.13.04c-.04,0-.17-.06-.2-.08l-.25-.28v-.05s.04-.15.04-.15l.37.09.25.27s0,.02-.01.03c-.01.02-.06.1-.07.12Z"/>
    <path class="st5" d="M14.63,9.45l-.16-.02s-.01-.02-.01-.02c.06-.02.09,0,.15.02,0,0,.03,0,.03.02Z"/>
    <path class="st5" d="M14.47,8.5l-.23-.28h-.02s.14-.37.14-.37l.41-.08h.03c.07.1.16.18.24.27l-.16.38-.39.09h-.03Z"/>
    <path class="st5" d="M15.2,8.76l-.17.36s-.03.01-.05.02c-.12.03-.24.04-.36.07l-.26-.27v-.03s.12-.36.12-.36l.41-.09.3.31Z"/>
    <path class="st5" d="M15.18,9.29l.07-.02s-.07.05-.11.07l.04-.05Z"/>
    <path class="st5" d="M14.62,7.46l-.03-.02c.09,0,.18,0,.27.02.14.02.29.09.4.17,0,0,.02,0,.02.02l-.44-.16c-.07,0-.14-.03-.22-.03Z"/>
    <path class="st5" d="M15.28,7.69l.19.25-.04.15s-.04,0-.06,0c-.01,0-.02,0-.03-.01-.09-.02-.17-.03-.26-.06-.06-.05-.1-.11-.15-.16-.02-.02-.09-.08-.1-.11-.01-.03,0-.06.01-.08,0-.02,0-.03,0-.05,0-.02.02-.05.02-.08.01,0,.02,0,.03,0,.12.03.25.1.37.13h.02Z"/>
    <path class="st5" d="M15.59,8.68v.21c-.02.05-.16.23-.2.27-.06.06-.13.07-.21.1l-.11-.13.17-.37s.02-.01.03-.02c.04-.03.09-.06.13-.09.02-.02.08-.07.09-.07,0,0,.01,0,.02,0,0,0,.08.1.08.1Z"/>
    <path class="st5" d="M15.45,8.09s.02-.1.04-.14c0-.01.03-.02.03-.03.02,0,.01,0,.02.01.12.2.18.47.13.7,0,.01-.01.03-.01.04-.01,0-.03,0-.04,0,0,0-.09-.11-.09-.12-.03-.15-.06-.3-.07-.46Z"/>
    <path class="st5" d="M16.4,7.62h0s-1.34-1.15-1.34-1.15l-1.96.67-.39,2.03,1.42,1.23.15.13,1.96-.67.39-2.03-.24-.2ZM13.63,8.64c-.14-.76.53-1.4,1.28-1.24.77.16,1.09,1.13.58,1.73-.58.68-1.7.38-1.86-.49Z"/>
    <path class="st10" d="M14.26,19.57c-.3-.03-.61-.06-.92-.09-.13-.13-.27-.26-.4-.39-.04-.04-.08-.07-.12-.11l.12-.59,1.31,1.18Z"/>
    <path class="st10" d="M14.78,20.33l-.47,2.21-.74-.67-1.14-1.03.16-.74.07-.31c.12.12.25.24.36.36.6.07,1.25.13,1.77.17Z"/>
    <polygon class="st9" points="18.55 26.79 18 29.21 16.14 27.54 16.67 25.09 18.55 26.79"/>
    <path class="st2" d="M16.39,24.84l-.52,2.45-1.89-1.7.41-1.95c.26.06.53.13.78.19.04.01.09.02.13.03l1.08.97Z"/>
    <path class="st2" d="M23.78,25.93l-.39,1.74-2.41.76.55-2.47,1.02-.32c.41.1.82.19,1.23.29Z"/>
    <path class="st2" d="M23.94,25.2v.04s-.05-.01-.07-.02l.07-.02Z"/>
    <path class="st2" d="M18.28,19.85c-.17,0-.34-.01-.5-.02l.08-.36.42.38Z"/>
    <path class="st2" d="M19.75,21.17h0s-.52,2.45-.52,2.45l-1.89-1.7.3-1.39c.45.02.94.04,1.47.06l.64.58Z"/>
    <path class="st1" d="M18.98,24.78l-.35,1.65-1.89-1.7.1-.48s.09.02.13.03c.64.16,1.31.32,2.01.5Z"/>
    <path class="st1" d="M19.15,23.98l-.02.11c-.66-.16-1.32-.33-1.99-.49-.05-.01-.1-.02-.15-.04l.27-1.28,1.89,1.7Z"/>
    <path class="st9" d="M17.32,20.51l-.25,1.17-1.41-1.27c.43.04.99.07,1.66.11Z"/>
    <path class="st9" d="M17.59,19.22l-.12.59c-.86-.04-1.45-.08-1.83-.12-.09,0-.22-.02-.38-.03l.45-2.13,1.89,1.7Z"/>
    <path class="st9" d="M16.54,24.17l-.07.31-.5-.45c.2.05.39.1.57.14Z"/>
    <path class="st9" d="M16.99,22.03l-.31,1.45c-.52-.13-1.17-.29-1.83-.45l-.27-.25.52-2.43v-.02s.03.02.03.02l1.86,1.68Z"/>
    <path class="st8" d="M15.43,17.28l-.5,2.35s-.1,0-.15-.01l-1.76-1.59.52-2.45,1.89,1.7Z"/>
    <path class="st1" d="M14.21,22.87c-.3-.07-.6-.15-.88-.22-.09.13-.2.27-.28.44-.17.36-.36.75-.56,1.15l-.66-.59h0s.28-1.3.28-1.3l.12-.55c.2-.12.42-.18.65-.12-.16-.13-.34-.29-.52-.46h0s.53.46.53.46l.05.05s.01.01.02.01l.59.54.66.6Z"/>
    <path class="st1" d="M14.09,23.57l-.38,1.78-.73-.65c.22-.35.42-.71.63-1.14l.04-.09c.14.03.29.07.43.11Z"/>
    <path class="st8" d="M22.38,20.69l-.49,2.2-2.41.76.55-2.47,1.62-.51c.24,0,.49.01.73.02Z"/>
    <path class="st10" d="M21.34,25.35l-.08.36-2.41.76.36-1.64c.69.17,1.4.34,2.13.52Z"/>
    <path class="st10" d="M21.81,23.25l-.31,1.41c-.71-.17-1.42-.34-2.13-.52l.03-.13,2.41-.76Z"/>
    <polygon class="st1" points="21.18 26.08 20.64 28.55 18.26 29.3 18.77 26.84 21.18 26.08"/>
    <path class="st9" d="M24.93,20.75l-.28,1.26-2.41.76.46-2.08c.73.02,1.47.04,2.23.05Z"/>
    <path class="st9" d="M25.2,19.55l-.11.5c-.48-.01-.94-.02-1.37-.03l1.49-.47Z"/>
    <path class="st1" d="M21.95,25.5l-.34.11.04-.18c.1.02.2.05.3.07Z"/>
    <path class="st1" d="M24.57,22.37l-.55,2.47-.76.24c-.48-.11-.97-.23-1.46-.35l.35-1.6,2.41-.76Z"/>
    <path class="st8" d="M27.48,20.81l-.07.34-2.41.76.25-1.14c.74.01,1.49.03,2.23.04Z"/>
    <path class="st8" d="M27.95,18.67l-.32,1.43c-.79-.02-1.53-.03-2.23-.04l.14-.62,2.41-.76Z"/>
    <polygon class="st2" points="24.92 22.27 24.37 24.73 26.78 23.97 27.33 21.5 24.92 22.27"/>
    <path class="st1" d="M26.22,26.49l-.07.31h0s-2.41.76-2.41.76l.34-1.56c.36.08.72.17,1.08.25.35.08.7.16,1.05.24Z"/>
    <path class="st1" d="M26.7,24.33l-.33,1.47c-.35-.07-.7-.15-1.05-.23-.36-.08-.72-.17-1.09-.25l.05-.22,2.41-.76Z"/>
    <polygon class="st1" points="20.28 18.19 17.82 18.96 15.85 17.26 18.31 16.49 20.28 18.19"/>
    <polygon class="st2" points="20.82 15.47 18.36 16.24 16.39 14.54 18.85 13.77 20.82 15.47"/>
    <path class="st2" d="M20.63,20.64l-.64.2-.26-.23c.29.01.59.02.9.03Z"/>
    <path class="st2" d="M22.34,19.98c-1.4-.04-2.55-.07-3.48-.11h0l-.85-.74,2.46-.77,1.87,1.62Z"/>
    <polygon class="st1" points="22.99 17.35 20.53 18.12 18.56 16.41 21.02 15.64 22.99 17.35"/>
    <polygon class="st9" points="23.53 14.63 21.07 15.39 19.1 13.69 21.56 12.92 23.53 14.63"/>
    <polygon class="st9" points="25.16 19.22 22.7 19.99 22.7 19.99 20.72 18.28 23.18 17.52 25.16 19.22"/>
    <polygon class="st10" points="25.7 16.5 23.24 17.27 21.27 15.56 23.73 14.79 25.7 16.5"/>
    <polygon class="st1" points="27.87 18.38 25.4 19.15 23.43 17.44 25.89 16.67 27.87 18.38"/>
    <path class="st7" d="M14.91,29.68s.02-.06.02-.09c0,.03-.01.06-.02.09Z"/>
    <path class="st4" d="M38.2,21.73c-.13,1.58-.3,3.09-.17,4.68.03.31.13.61-.24.73-.03,0-.07.02-.1.03-.42.09-.93-.02-1.35-.03-2.96-.08-5.86-.49-8.75-1.08-.08-.02-.17-.03-.25-.05-.32-.07-.65-.14-.97-.21-.35-.07-.7-.15-1.05-.23-.36-.08-.72-.17-1.09-.25-.1-.02-.2-.05-.31-.07-.02,0-.04-.01-.06-.02h0c-.2-.05-.4-.09-.61-.14-.48-.11-.97-.23-1.46-.35-.1-.02-.2-.05-.31-.07-.71-.17-1.42-.34-2.13-.52-.08-.02-.16-.04-.24-.06-.66-.16-1.32-.33-1.99-.49-.05-.01-.1-.02-.15-.04-.1-.02-.2-.05-.31-.08-.52-.13-1.17-.29-1.83-.45-.22-.05-.43-.11-.65-.16h0c-.3-.07-.6-.15-.88-.22-.09.13-.2.27-.28.44-.17.36-.36.75-.56,1.15-.13.26-.27.52-.42.78-.26.47-.54.91-.83,1.29-.07.09-.13.16-.19.21-.44.38-.78-.05-1.2-.53-1.2-1.38-.09-1.77.81-2.56.01-.01.02-.02.03-.03h0c.1-.09.2-.19.3-.29.26-.29.59-.82.99-1.16.07-.06.15-.12.23-.16.2-.12.42-.18.65-.12-.16-.13-.34-.29-.52-.46-.09-.09-.19-.17-.28-.25-.05-.04-.09-.08-.14-.12-.01-.01-.02-.02-.04-.03-.03-.02-.05-.05-.08-.07-.03-.02-.05-.04-.07-.06-.02-.02-.05-.04-.07-.05-.02-.02-.05-.03-.07-.05-.2-.15-.5-.34-.83-.56v.02s-.01-.02-.01-.03c-.81-.56-1.78-1.28-1.75-1.87.02-.39.83-1.85,1.33-1.64.11.04.2.15.29.29.15.24.27.58.38.89.03.08.06.15.08.22.06.16.13.3.19.41.1.17.24.33.39.5.28.32.63.65.97.97.12.12.25.24.36.36.6.07,1.25.13,1.77.17.11,0,.22.02.32.03v-.02s.03.02.03.02c.18.01.33.03.44.04.03,0,.06,0,.09,0h0c.43.04.99.07,1.66.11.1,0,.21,0,.32.02.45.02.94.04,1.47.06.2,0,.4.02.62.02h0c.29.01.59.02.9.03h0c.33.01.67.02,1.02.03.24,0,.49.01.73.02.11,0,.21,0,.32,0,.73.02,1.47.04,2.23.05.11,0,.21,0,.32,0,.74.01,1.49.03,2.23.04.34,0,.68.01,1.01.02,4.4.08,8.19.12,8.3.12.27.01.56.03.82.1.36.1.63.29.6.68Z"/>
    <path class="st5" d="M38.2,21.73c-.13,1.58-.3,3.09-.17,4.68.03.31.13.61-.24.73-.03,0-.07.02-.1.03-.42.09-.93-.02-1.35-.03-2.96-.08-5.86-.49-8.75-1.08-.08-.02-.17-.03-.25-.05-.32-.07-.65-.14-.97-.21-.35-.07-.7-.15-1.05-.23-.36-.08-.72-.17-1.09-.25-.1-.02-.2-.05-.31-.07-.02,0-.04-.01-.06-.02h0c-.2-.05-.4-.09-.61-.14-.48-.11-.97-.23-1.46-.35-.1-.02-.2-.05-.31-.07-.71-.17-1.42-.34-2.13-.52-.08-.02-.16-.04-.24-.06-.66-.16-1.32-.33-1.99-.49-.05-.01-.1-.02-.15-.04-.1-.02-.2-.05-.31-.08-.52-.13-1.17-.29-1.83-.45-.22-.05-.43-.11-.65-.16h0c-.3-.07-.6-.15-.88-.22-.47-.12-.9-.22-1.23-.31h0l-.11-.39c.07-.06.15-.12.23-.16.2-.12.42-.18.65-.12-.16-.13-.34-.29-.52-.46-.09-.09-.19-.17-.28-.25-.05-.04-.09-.08-.14-.12-.01-.01-.02-.02-.04-.03-.03-.02-.05-.05-.08-.07-.03-.02-.05-.04-.07-.06-.02-.02-.05-.04-.07-.05-.02-.02-.05-.03-.07-.05l-.21-.75c.07.11.57.2,1.2.28.14.02.28.04.43.05.6.07,1.25.13,1.77.17.11,0,.22.02.32.03,0,0,.02,0,.03,0,.18.01.33.03.44.04.03,0,.06,0,.09,0h0c.43.04.99.07,1.66.11.1,0,.21,0,.32.02.45.02.94.04,1.47.06.2,0,.4.02.62.02h0c.29.01.59.02.9.03h0c.33.01.67.02,1.02.03.24,0,.49.01.73.02.11,0,.21,0,.32,0,.73.02,1.47.04,2.23.05.11,0,.21,0,.32,0,.74.01,1.49.03,2.23.04.34,0,.68.01,1.01.02,4.4.08,8.19.12,8.3.12.27.01.56.03.82.1.36.1.63.29.6.68Z"/>
    <path class="st5" d="M13.57,21.87s-.11.07-.17.07c-.07,0-.15,0-.23-.05-.06-.03-.13-.08-.21-.15,0,0-.01,0-.02-.01-.02-.02-.04-.03-.06-.05h0c-.16-.13-.34-.29-.52-.46-.09-.09-.19-.17-.28-.25-.05-.04-.09-.08-.14-.12-.01-.01-.02-.02-.04-.03-.03-.02-.05-.05-.08-.07-.03-.02-.05-.04-.07-.06-.02-.02-.05-.04-.07-.05-.02-.02-.05-.03-.07-.05-.2-.15-.5-.34-.83-.56,0,0,0,0-.01,0-.81-.56-1.78-1.28-1.75-1.87.02-.39.83-1.85,1.33-1.64.11.04.2.15.29.29.15.24.27.58.38.89.03.08.06.15.08.22.06.16.13.3.19.41.1.17.24.33.39.5.28.32.63.65.97.97.12.12.25.24.36.36.29.31.54.61.68.9.13.28.07.66-.13.81Z"/>
    <path class="st5" d="M13.55,22.28c-.02.12-.11.24-.21.38-.09.13-.2.27-.28.44-.17.36-.36.75-.56,1.15-.13.26-.27.52-.42.78-.26.47-.54.91-.83,1.29-.07.09-.13.16-.19.21-.44.38-.78-.05-1.2-.53-1.2-1.38-.09-1.77.81-2.56.01-.01.02-.02.03-.03h0c.1-.09.2-.19.3-.29.26-.29.59-.82.99-1.16.07-.06.15-.12.23-.16.2-.12.42-.18.65-.12h0s0,0,.01,0c.06.01.12.03.18.06.15.07.26.14.34.2.14.11.18.22.15.33Z"/>
    <polygon class="st10" points="18.12 16.32 15.65 17.09 13.68 15.38 16.14 14.61 18.12 16.32"/>
    <path class="st10" d="M17.63,5.58c-.06.07-.14.13-.23.16-.1.03-.19.03-.27-.01-.08-.04-.14-.11-.17-.22-.04-.11-.04-.21,0-.29.04-.08.11-.14.21-.18.09-.03.18-.04.27-.02l-.08-.23c-.08,0-.17.02-.28.05-.17.06-.29.16-.36.3-.07.14-.07.3-.02.47.06.16.15.27.27.34.13.06.27.07.44.01.13-.04.22-.1.29-.16l-.08-.22Z"/>
    <path class="st10" d="M18.19,5.03l-.41.14.06.16.41-.14-.06-.17Z"/>
    <path class="st10" d="M18.75,4.73l.67.52.24-.08-.37-1.08-.23.08.2.59c.02.07.04.12.06.15h0s-.05-.05-.08-.07l-.65-.51-.26.09.37,1.08.23-.08-.2-.59c-.03-.08-.05-.13-.07-.17h0s.04.04.08.07Z"/>
    <path class="st2" d="M28.68,5.5l-.12.18.28.19-.55.81.22.15.55-.81.28.19.12-.18-.79-.54Z"/>
    <path class="st2" d="M29.35,6.64l-.1.15.38.26.1-.15-.38-.26Z"/>
    <path class="st2" d="M30.59,6.8l-1.04.75.24.16.22-.17.35.24-.08.27.24.17.32-1.23-.26-.18ZM30.43,7.58l-.25-.17.34-.26s.06-.05.08-.07h0s-.04.07-.05.1l-.12.41Z"/>
    <path class="st9" d="M27.39,7.69l-.05-.05-.31.12-2.11.79h0l-1.34.5-.08.46-.19,1.11-.41,2.4,3.09,2.56,3.77-1.42.56-3.29.12-.68-3.04-2.51ZM29.19,10.83c-.04.06-.03.12-.12.13-.05,0-.1,0-.15,0-.02,0-.04,0-.07,0-.1,0-.21-.05-.29.04-.1.12-.13.33-.21.48-.04.07-.08.12-.12.19-.06.1-.12.21-.18.3-.05.07-.1.15-.15.22-.07.1-.12.17-.18.29-.04.09-.08.19-.11.28-.06.21-.08.41-.14.62,0,.01-.01.02-.02.03,0,.03,0,.12.03.13.01,0,.03,0,.05.01.01,0,.03.09.03.11,0,.03,0,.06-.04.07-.04,0-.08-.01-.12-.02-.05,0-.09,0-.14-.03-.05-.02-.03-.04-.03-.08,0-.09,0-.19-.01-.28,0-.01-.01-.02-.01-.04,0-.03,0-.06.01-.09.03-.18.06-.36.08-.54,0-.07.02-.12.03-.19,0-.02,0-.04.02-.06,0,0,0-.01-.01-.02-.02,0-.05.01-.08,0-.02.06-.06.11-.08.16-.06.14-.11.33-.13.48-.01.05,0,.11-.02.16-.02.06-.03.09-.04.15,0,.03-.05.14-.02.17,0,.01.03,0,.04.02.02.02.05.12.04.15,0,.02-.03.03-.05.03-.04,0-.12-.02-.16-.02-.03,0-.08-.02-.09-.04-.01-.02,0-.04,0-.06,0-.11-.06-.19-.04-.31.03-.19.05-.37.07-.55.01-.15,0-.3.04-.44-.08-.02-.16-.04-.23-.06-.15-.05-.31-.08-.45-.16-.03-.02-.05-.04-.08-.05-.03,0-.11.14-.14.18-.06.07-.13.14-.2.2-.08.06-.18.1-.24.18-.04.05-.07.13-.1.19,0,.02-.03.1-.02.11.01.01.04,0,.06.04.01.03.02.1-.03.11,0,0-.09,0-.1,0-.03,0-.09-.04-.12-.05-.1-.05-.05-.11-.03-.2.02-.07.03-.15.04-.23,0-.03.02-.08.03-.11.02-.04.06-.06.1-.09.09-.08.17-.16.19-.29,0,0,0-.03,0-.03-.06.09-.14.17-.23.24-.05.04-.11.07-.15.11-.15.12-.22.28-.25.47.02,0,.06.01.07.03,0,.01,0,.11,0,.12-.01.02-.05,0-.07,0-.07,0-.17-.03-.23-.05-.05-.02-.05-.06-.05-.11.02-.16.08-.31.13-.45.02-.04.02-.08.05-.12.04-.06.1-.05.14-.1.13-.12.11-.33.14-.48.01-.06.03-.11.05-.17-.02-.01-.01,0-.02,0-.04.03-.1.06-.14.08-.02,0-.15.06-.16.06-.01,0-.02-.01-.03-.01-.03,0-.1.02-.13.02-.1-.02-.18,0-.28-.02-.08,0-.16-.03-.24-.04,0,0-.03,0-.04,0-.02,0-.04.03-.05.01.02-.03.03-.06.06-.09.13-.16.31-.12.48-.16.3-.07.44-.18.63-.41.06-.08.22-.23.31-.28.14-.08.39-.09.55-.07.33.05.66.24,1.01.24.1,0,.2-.06.31-.07.07-.01.17,0,.23-.04.05-.03.1-.09.14-.15.05-.07.1-.14.13-.19.02-.03.07-.12.07-.15,0-.02-.01-.06-.01-.09,0-.05,0-.07.04-.1.09-.04.18-.11.26-.15.05-.02.07-.03.13-.02.27,0,.52.08.68.3.05.06.05.09.05.17,0,.05.03.04.06.07.02.01.03.03.04.05.03.02.12.1.13.12.01.03-.01.08-.03.12,0,0,0,0,0,0-.02.04-.04.08-.07.12Z"/>
    <path class="st8" d="M24.61,2.52l-2.67.92-.53,2.77,1.68,1.45h0l.46.4,2.68-.92.14-.71.39-2.05-2.14-1.85ZM25.32,4.2s.06-.04.09-.05l.5.04-.2.46-2.27,1.28h0s-.08-.14-.08-.14h0s2.18-1.37,2.18-1.37l-2.24,1.27h0s-.08-.14-.08-.14h0c.71-.45,1.41-.9,2.11-1.34ZM24.32,5.67s-.05-.07-.05-.08l.16-.09.23.41-.14.08c-.07-.11-.14-.22-.2-.32ZM24.43,6.05h0s-.06.05-.09.06c0,0-.04.02-.04.02,0,0,0,0,0,0l-.25-.4h0s.16-.1.16-.1l.23.41ZM22.93,3.43l.47.21c.21.38.42.75.63,1.13.01.02.03.05.04.07,0,0,0,0,0,0l-.19.12-.74-1.17.68,1.21-.18.12h0s-.75-1.18-.75-1.18l.04-.51ZM22.73,6.25c-.06.03-.12.07-.18.1-.09.21-.4.1-.32-.12.03-.08.11-.11.19-.11l.62-.38-.17-.29c.09-.05.19-.03.25.05l.32.54c.04.09.02.2-.07.25l-.17-.29c-.15.09-.3.17-.46.26ZM25.16,7.09c-.1.1-.28.04-.29-.1h0s0-.04,0-.05c0-.02-.04-.07-.05-.09l-.33-.53-.29.17c-.05-.09-.02-.2.06-.25.18-.09.35-.23.53-.32.09-.04.2-.02.25.07l-.29.17.37.64s.06.03.07.06c.05.06.05.16-.01.22Z"/>
    <path class="st1" d="M19.65,9.19l-.03.22-.32-.02s0-.01,0-.02c0-.02.01-.12.02-.12.08.01.15-.05.22-.06.02,0,.11,0,.12,0Z"/>
    <path class="st1" d="M19.72,8.71l-.05.35s-.05,0-.07,0c-.1,0-.17.07-.26.08,0,0,0-.01,0-.02,0-.02.01-.07.02-.09.01-.02.06-.07.08-.09.05-.07.09-.16.12-.24l.16.02Z"/>
    <path class="st1" d="M19.93,9.24l-.06.22-.16-.03.02-.21s.04,0,.06,0c.05,0,.09.01.14.02Z"/>
    <path class="st1" d="M20.07,8.76l-.1.35c-.07-.02-.14-.02-.21-.04l.05-.34.25.04Z"/>
    <path class="st1" d="M20.46,9.56l-.04.11c-.15-.09-.31-.15-.48-.19l.07-.21s.06.01.09.03c.04.02.07.06.1.09.08.07.16.13.26.18Z"/>
    <path class="st1" d="M20.53,9.35l-.03.09s-.13-.08-.15-.09c-.06-.05-.13-.12-.19-.17-.03-.02-.07-.04-.11-.05l.11-.35.2.03c-.02.08-.02.17,0,.25.03.11.09.21.17.3Z"/>
    <path class="st1" d="M20.59,8.41s-.03.06-.06.08c-.19.19-.6.21-.82.06-.07-.05-.13-.11-.13-.21.11.2.38.25.59.24.13,0,.25-.05.36-.12l.06-.06Z"/>
    <path class="st1" d="M20.59,7.84c-.01-.18-.13-.33-.3-.4-.2-.08-.43,0-.56.16-.1.12-.11.23-.1.38,0,.18.06.34.24.41.09.03.41.03.5,0,.23-.1.24-.31.23-.54ZM20.53,8c-.01.24-.12.33-.35.33-.1,0-.25,0-.34-.04-.13-.07-.15-.19-.15-.32,0-.19.03-.38.25-.4.11,0,.24,0,.35,0,.02,0,.06,0,.07.01.18.07.17.25.16.41Z"/>
    <path class="st1" d="M20.34,6.69l-2.97,1.05-.57,3.09,1.08.91,1.33,1.13,2.97-1.05.2-1.07.37-2.01-2.41-2.04ZM21.4,9.55s.07.12.07.13c0,.03-.05.05-.03.08.01.02.07.06.08.07,0,0,0,.02,0,.03,0,.02.07.06.09.08.02.02.12.1.12.12,0,.01,0,.02,0,.03,0,0,.02.02.02.03.03.05.08.13.04.19,0,0-.02,0-.03.02,0,.01-.01.04-.02.05-.01.01-.05,0-.06,0-.01,0-.02.03-.06.02-.06-.01,0-.09,0-.11.01-.05-.06-.11-.1-.11-.02.04.03.09,0,.13-.05.04-.1-.07-.12-.1-.02-.04-.06-.11-.07-.15,0-.02,0-.06-.02-.07-.01-.02-.05-.03-.05-.06-.02,0-.04.03-.06.02-.02-.01-.07-.06-.09-.09-.03-.03-.06-.07-.09-.11.06-.09.16-.19.27-.21.04,0,.08-.02.11.01ZM20.12,11.26s-.01.08-.02.12c0,.02.02.04.01.08,0,.07-.06.1-.07.13,0,.02.02.08.01.12,0,.04-.03.06-.03.09-.02.09.02.15-.05.23-.12.13-.35.05-.32-.14,0-.07.05-.13.06-.19,0-.02,0-.05,0-.07,0-.01,0-.03,0-.04,0-.03-.06-.09-.07-.14-.01-.06.02-.1.02-.14,0-.01-.01-.04-.02-.06,0,0,0,0,0-.01-.04-.16-.06-.35-.06-.51,0-.15.03-.33.02-.47,0,0,0-.02,0-.02-.06.09-.12.19-.19.27-.05.06-.11.1-.15.16-.02.03-.03.06-.05.09,0,.09.04.2,0,.29,0,.01-.02.03-.02.04,0,0,.02.05.02.06.02.07,0,.08-.02.14,0,.02,0,.04.01.07,0,.01,0,.03,0,.04,0,.03-.03.06-.03.09,0,.02.02.06.03.09.01.11-.09.15-.14.23-.07.09-.07.16-.19.21h-.06s-.08,0-.08,0l-.05-.05c-.04-.06-.04-.14,0-.2.02-.04.07-.08.1-.12.02-.03.04-.08.05-.11,0,0-.02-.03-.04-.05,0-.01-.02-.02-.02-.03-.03-.06-.02-.09-.02-.15,0-.02-.02-.05-.02-.09,0-.05.03-.09.03-.12,0-.01-.02-.03-.02-.05-.05-.14-.04-.33,0-.47.01-.03.02-.05.02-.09,0-.05-.01-.12.05-.15.06-.03.18-.01.25.02.02,0,.13.08.14.08-.03-.11-.1-.17-.21-.19-.04,0-.08,0-.12,0,.01-.05.01-.08.04-.12.03-.04.09-.05.14-.04.09.02.17.05.25.1,0,0-.04-.09-.04-.09-.06-.09-.16-.1-.27-.08.05-.16.18-.26.28-.39-.03-.17,0-.34.01-.51,0-.01,0,0-.01,0-.02,0-.04.02-.05.02-.12.06-.24.13-.36.18-.08.03-.17.04-.24.07-.02,0-.05.03-.06.03-.02,0-.03-.03-.04-.03-.01,0-.09.02-.1.03-.05.02-.09.06-.15.08-.03.01-.09.01-.12.03-.02,0,.01.03.02.03.02.02.02.05,0,.06-.03.01-.03-.02-.06-.02.01.03.03.05,0,.07-.03.02-.06-.03-.09-.04-.02,0-.05,0-.06-.03,0-.02,0-.11,0-.13,0-.05.05-.08.08-.12.01-.02.02-.03.03-.05.03-.03.08-.04.13-.06.04-.02.1-.08.14-.08.02,0,.04,0,.06,0,0,0,.05-.02.05-.03.01-.01,0-.05,0-.07l.15-.11h.09c.03.11.12.28.24.29.01,0,.02,0,.03,0-.1-.1-.2-.24-.18-.4,0,0,.04-.05.04-.05.03,0,.09-.07.14-.06.02.14.08.28.22.34l-.07-.12c-.04-.1-.08-.22-.05-.33,0,0,.06-.07.08-.08.02-.01.05-.03.08-.04v.05s-.01.06-.01.06c.02-.04.03-.08.06-.12.08-.11.24-.15.36-.17,0,0-.03-.06-.03-.07,0-.02-.02-.08-.02-.1,0-.01-.05-.03-.06-.04-.02-.03-.03-.12-.02-.16,0-.06.01-.16.05-.2.02-.03.07-.02.08-.03.01-.01.04-.07.05-.09.25-.36.79-.33.98.07,0,.01,0,.04.02.05.01.01.03.01.05.02.02.01.04.04.04.07,0,.04,0,.22,0,.25-.01.04-.04.05-.08.06-.02.07-.04.14-.07.2.18.02.27.08.26.27,0,.03-.02.05,0,.08.05.06.11.11.15.17,0,0,.04.07.04.08,0,0-.01,0-.02.01-.04.01-.08.03-.12.04-.1.04-.19.12-.24.22.14-.05.26-.17.42-.19l.05.12s-.04.1-.06.12c-.06.08-.15.12-.23.17.1,0,.22-.03.29-.11.02-.02.03-.04.05-.05.04.07.09.14.15.21-.11.02-.21.08-.29.16-.02.02-.04.05-.06.07l-.23-.22-.03.21c-.04.12-.13.17-.26.16-.03,0-.05-.01-.07-.01-.01.14-.02.28-.07.41-.01,0-.08-.07-.09-.07-.08-.06-.17-.11-.28-.08-.04,0-.07.03-.1.06l.15.02c.16.03.36.18.25.35-.12-.1-.3-.25-.45-.14.03.01.06.02.09.03.06.02.13.05.18.08.04.02.11.06.12.11.02.09-.06.18-.12.25.04.09.09.18.04.29,0,0,0,.01-.01.02,0,0-.01.02-.01.02,0,0,.03.07.03.1Z"/>
  </g>
</svg>